M48
;Layer_Color=9474304
;FILE_FORMAT=4:4
METRIC,LZ
;TYPE=PLATED
T1F00S00C0.1500
T2F00S00C0.2000
T3F00S00C1.0000
;TYPE=NON_PLATED
T6F00S00C0.8000
T7F00S00C1.1000
T8F00S00C3.0000
%
T01
X0023075Y000935
X0023575Y000935
X00239349Y00108851
Y0011935
Y0012435
X00234349
Y0011435
X00227999Y00113
X00221
X0022385Y0012435
X00229349Y0011935
X00244349
Y0012435
Y0012935
X00239349
X0025015
X00253599Y001351
X00249349Y0013935
X00260099Y001286
X00264349Y0012935
X00269349
Y0013435
X00274349Y0012935
X00279349
X00284349
X00289349
Y0013435
X00279349
Y0012435
X00284349
Y0011935
X00279849
X00273849Y001181
X00269849
X00264099Y001181
X00259349Y0011935
Y0012435
X00264349
X00269349
X00274349
X00289349Y0011935
Y0011435
X00291Y001105
X00284349Y00108851
X00264349Y00108851
X00269349Y00103352
X0025025Y0010375
X00254349Y0011435
X00244349Y0011435
X00218351Y0013935
X00294349
X00299349
Y0012435
Y0011935
Y0011435
X00304349Y0010985
X00311824Y00111875
X00309349Y0012435
X00304349
Y0011935
Y0012935
X0032Y00127
X003345Y001305
X0034775Y0013125
X0032625Y0014435
X0032Y0014125
X00309349Y001436
X00304349
X00299349Y0014435
X00298599Y001486
X00305349Y0014985
X00310099
Y0015385
X00309349Y0015985
Y0016435
X00304349
Y0016935
X00298349Y0017035
X00299349Y0016435
Y0015935
X00304349
X00303099Y001556
X00294349Y0015435
X00289349
X00284349
Y0015935
X00284349Y0017435
X00289349
X00284349Y0017935
X00274349
X00269349Y0018435
Y0019435
X00279349
X00289349Y0019435
X00299349Y0019435
Y0019935
X0031425Y0019925
X00314349Y0018435
X003185Y001835
X00321Y001625
X00294349Y0014435
X00279349
X00269349Y0014435
X00259349Y0014435
X00244349
X00239349Y0014435
Y0014935
X00243099Y001501
X00249349Y0014935
Y0015435
X00239349
X00235599Y001536
X00233099Y001501
X00234349Y001436
X0022385Y0014435
X0022385Y0015435
Y0016435
X0022385Y0017435
X00218351Y0016935
X00218351Y0015935
Y0014935
X00233099Y001601
X00235599Y001636
X00240599
X00244349Y0016435
X00243099Y001601
X00239349Y0015935
X00238099Y001701
X00233099
X00234349Y001785
X00239349Y001785
X00244349Y00179
X00249349Y0017435
X00254349Y0017935
X00264349
Y0016435
X00254349
X00243099Y001701
X00239349Y0018435
X00234349
X00229349
X00234349Y0018935
X00239349
Y0019435
X00244349Y0018935
Y0019935
X0024425Y00204
X0023575Y0021175
X00235Y0021975
X0022625Y0021175
X00228Y002035
Y0019925
X00254349Y0019435
X00254349Y0018935
X00259349Y0019435
X00295Y0018525
X00274349Y0015435
X00264349
X0020225Y0016075
X0023075Y004572
X0023575Y004572
X00239349Y00472551
Y0048305
Y0048805
X00234349
Y0047805
X00227999Y004767
X00221
X0022385Y0048805
X00229349Y0048305
X00244349
Y0048805
Y0049305
X00239349
X0025015
X00253599Y004988
X00249349Y0050305
X00244349Y0050805
X00239349Y0050805
Y0051305
X00243099Y005138
X00249349Y0051305
Y0051805
X00239349
X00235599Y005173
X00233099Y005138
X00234349Y005073
X0022385Y0050805
X0022385Y0051805
Y0052805
X00218351Y0053305
X00218351Y0052305
Y0051305
X00218351Y0050305
X00233099Y005238
X00235599Y005273
X00240599
X00244349Y0052805
X00243099Y005238
X00239349Y0052305
X00238099Y005338
X00233099
X00243099Y005338
X00254349Y0052805
X00264349
Y0051805
X00274349
X00284349
Y0052305
X00289349Y0051805
X00294349
X00299349Y0052305
X00304349
X00303099Y005193
X00305349Y0051355
X00310099
Y0051755
X00309349Y0052355
Y0052805
X00304349
Y0053305
X00298349Y0053405
X00299349Y0052805
X00298599Y005123
X00299349Y0050805
Y0050305
X00294349
Y0050805
X00304349Y005073
X00309349
X0032Y0050495
X0032625Y0050805
X003345Y004942
X0034775Y0049495
X0032Y004907
X00309349Y0048805
X00304349
Y0048305
X00299349
Y0047805
X00304349Y0047355
X00311824Y00475575
X00291Y004742
X00289349Y0047805
Y0048305
X00284349Y0048305
X00279849
X00279349Y0048805
Y0049305
X00284349
X00289349
Y0049805
X00279349
Y0050805
X00269349Y0050805
Y0049805
Y0049305
X00274349
Y0048805
X00269349
X00264349
Y0049305
X00260099Y004923
X00259349Y0048805
Y0048305
X00264099Y004818
X00269849Y004818
X00273849
X00284349Y0048805
X00299349
X00304349Y0049305
X00284349Y00472551
X00264349Y00472551
X00269349Y00467052
X0025025Y0046745
X00254349Y0047805
X00244349Y0047805
X00259349Y0050805
X0020225Y0052445
X00321Y005262
X003185Y005472
X00314349Y0054805
X0031425Y0056295
X00299349Y0056305
Y0055805
X00289349Y0055805
X00279349Y0055805
X00269349
Y0054805
X00274349Y0054305
X00284349
Y0053805
X00289349
X00295Y0054895
X00264349Y0054305
X00254349
X00254349Y0055305
X00254349Y0055805
X00259349Y0055805
X00244349Y0055305
X00239349
Y0055805
X00234349Y0055305
Y0054805
X00239349
Y005422
X00234349Y005422
X00244349Y005427
X00249349Y0053805
X0022385Y0053805
X00229349Y0054805
X00228Y0056295
Y005672
X0022625Y0057545
X0023575
X00235Y0058345
X0024425Y005677
X00244349Y0056305
X0023575Y008209
X0023075Y008209
X00227999Y008404
X00221
X0022385Y0085175
X00229349Y0084675
X00239349
Y0085175
X00234349
Y0084175
X00244349
Y0084675
Y0085175
Y0085675
X00239349
X0025015
X00253599Y008625
X00249349Y0086675
X00244349Y0087175
X00239349Y0087175
Y0087675
X00243099Y008775
X00249349Y0087675
Y0088175
X00239349
X00235599Y00881
X00233099Y008775
X00234349Y00871
X0022385Y0087175
X0022385Y0088175
Y0089175
X0022385Y0090175
X00218351Y0089675
X00218351Y0088675
Y0087675
X00218351Y0086675
X00233099Y008875
X00235599Y00891
X00240599
X00244349Y0089175
X00243099Y008875
X00239349Y0088675
X00238099Y008975
X00233099
X00234349Y009059
X00239349Y009059
X00244349Y009064
X00249349Y0090175
X00254349Y0090675
X00264349
X00269349Y0091175
X00274349Y0090675
X00284349
Y0090175
X00289349
X00298349Y0089775
X00304349Y0089675
Y0089175
X00309349
Y0088725
X00304349Y0088675
X00303099Y00883
X00299349Y0088675
Y0089175
X00294349Y0088175
X00289349
X00284349
Y0088675
X00274349Y0088175
X00264349
Y0089175
X00254349
X00243099Y008975
X00239349Y0091175
X00234349
X00229349
X00234349Y0091675
X00239349
Y0092175
X00244349Y0091675
Y0092675
X0024425Y009314
X00228Y009309
Y0092665
X00254349Y0092175
X00254349Y0091675
X00259349Y0092175
X00269349
X00279349
X00289349Y0092175
X00299349Y0092175
Y0092675
X0031425Y0092665
X00314349Y0091175
X003185Y009109
X00321Y008899
X00310099Y0088125
Y0087725
X00305349
X00304349Y00871
X00309349
X00299349Y0087175
X00298599Y00876
X00294349Y0087175
Y0086675
X00299349
X00289349Y0086175
Y0085675
X00284349
X00279349
Y0086175
Y0087175
X00269349Y0087175
Y0086175
Y0085675
X00274349
Y0085175
X00269349
X00264349
Y0085675
X00260099Y00856
X00259349Y0085175
Y0084675
X00264099Y008455
X00269849Y008455
X00273849
X00279849Y0084675
X00284349
X00289349Y0084675
Y0084175
X00291Y008379
X00284349Y00836251
X00284349Y0085175
X00279349
X00299349
Y0084675
Y0084175
X00304349Y00837251
X00311824Y00839276
X00309349Y0085175
X00304349
Y0084675
Y0085675
X0032Y008544
Y0086865
X0032625Y0087175
X003345Y008579
X0034775Y0085865
X00259349Y0087175
X00254349Y0084175
X0025025Y0083115
X00239349Y00836251
X00264349
X00269349Y00830752
X00295Y0091265
X0020225Y0088815
X0022625Y0093915
X0023575
X00235Y0094715
X0023575Y011846
X0023075Y011846
X00227999Y012041
X00221
X0022385Y0121545
X00229349Y0121045
X00239349
Y0121545
X00234349
Y0120545
X00244349
Y0121045
Y0121545
Y0122045
X00239349
X0025015
X00253599Y012262
X00249349Y0123045
X00244349Y0123545
X00239349Y0123545
Y0124045
X00243099Y012412
X00249349Y0124045
Y0124545
X00239349
X00235599Y012447
X00233099Y012412
X00234349Y012347
X0022385Y0123545
X0022385Y0124545
Y0125545
X0022385Y0126545
X00218351Y0126045
X00218351Y0125045
Y0124045
X00218351Y0123045
X00233099Y012512
X00235599Y012547
X00240599
X00244349Y0125545
X00243099Y012512
X00239349Y0125045
X00238099Y012612
X00233099
X00234349Y012696
X00239349Y012696
X00244349Y012701
X00249349Y0126545
X00254349Y0127045
X00264349
X00269349Y0127545
X00274349Y0127045
X00284349
Y0126545
X00289349
X00298349Y0126145
X00304349Y0126045
Y0125545
X00309349
Y0125095
X00304349Y0125045
X00303099Y012467
X00299349Y0125045
Y0125545
X00294349Y0124545
X00289349
X00284349
Y0125045
X00274349Y0124545
X00264349
Y0125545
X00254349
X00243099Y012612
X00239349Y0127545
X00234349
X00229349
X00234349Y0128045
X00239349
Y0128545
X00244349Y0128045
Y0129045
X0024425Y012951
X0023575Y0130285
X00235Y0131085
X0022625Y0130285
X00228Y012946
Y0129035
X00254349Y0128545
X00254349Y0128045
X00259349Y0128545
X00269349
X00279349
X00289349Y0128545
X00299349Y0128545
Y0129045
X0031425Y0129035
X00314349Y0127545
X003185Y012746
X00321Y012536
X00310099Y0124495
Y0124095
X00305349
X00304349Y012347
X00309349
X00299349Y0123545
X00298599Y012397
X00294349Y0123545
Y0123045
X00299349
X00289349Y0122545
Y0122045
X00284349
X00279349
Y0122545
Y0123545
X00269349Y0123545
Y0122545
Y0122045
X00274349
Y0121545
X00269349
X00264349
Y0122045
X00260099Y012197
X00259349Y0121545
Y0121045
X00264099Y012092
X00269849Y012092
X00273849
X00279849Y0121045
X00284349
X00289349Y0121045
Y0120545
X00291Y012016
X00284349Y01199951
X00284349Y0121545
X00279349
X00299349
Y0121045
Y0120545
X00304349Y01200951
X00311824Y01202976
X00309349Y0121545
X00304349
Y0121045
Y0122045
X0032Y012181
Y0123235
X0032625Y0123545
X003345Y012216
X0034775Y0122235
X00259349Y0123545
X00254349Y0120545
X0025025Y0119485
X00239349Y01199951
X00264349
X00269349Y01194452
X00295Y0127635
X0020225Y0125185
T02
X0006625Y0003175
X0007375Y0003
X00073401Y00024599
X0008Y00045
X000855
X00091179Y0005275
Y00057821
X000735Y000615
X0007275Y00074
X00067Y0008175
X00058875Y0008925
X0005425
X0005575Y000965
X0005875Y0010475
X00064Y0010475
X00064Y0011
X0005875Y0011
X000375Y0012425
X000375Y0012925
X000325Y0012925
X000325Y0012425
X000205Y001225
X0008775Y0011875
X0009875Y0012085
X0011825Y0011885
X0012625Y0011885
X0013425
X0014225Y0011885
X0015025Y0011885
X0016625Y0011885
X0017425Y0011885
X0018225
X0018875Y001251
X0018625Y0010535
X0017825Y0010535
X0017025Y0010535
X0016225
X0015425
X0014625
X0013825
X0013025Y0010535
X0012225Y0010535
X0011425Y0010535
X00112Y0008675
X00111Y00082
X0011975Y0008875
X0012975Y0008225
Y0007775
X0014375Y00077
Y0008175
X00144Y000935
X0016675Y0008275
X00173Y0008275
X0016975Y00079
X0018575Y00079
X00189Y0008275
X001825
Y0006525
X0017535
X0016715
X001615Y0004175
X001815Y000415
X00166401Y0002435
X00158651Y000201
X00150901Y0002435
X001435Y0004725
X00123Y000435
X0011675Y000415
X0012425Y000665
X0013725
X0013925Y0013485
X0015025Y0013485
X0016125
X0017225
X0012825
X0011825Y001285
X001225Y0012375
X000615Y0007125
Y00063
Y000565
X00066614Y0005475
X0006625Y0004725
X00061Y000395
X000485Y00072
X0020225Y00079
X0020125Y000845
X00222Y00081
X00233Y0008425
X00221Y0006475
X0021675Y00057
X002569Y0005725
X002651
X00272
X0028Y000685
X002835Y000725
X002885Y000725
X0028475Y000805
X0030375Y0007725
X00301Y000725
X0030125Y00067
X0029375Y000585
X0028075Y0004075
X0027575Y0004075
X0026425Y0004325
X00266859Y00031651
X0024725Y000415
X002446Y000211
X00236Y0001225
X002595Y00071
X002565Y0007475
X0026275Y0007475
X00263Y0009175
Y00097
X00259Y000945
X00276Y00095
X00305Y000975
X0031775Y00091
X0031825Y0008075
X00321Y0007675
X003155
X0035475Y00076
X0035375Y00094277
X00361Y00101777
X0036475Y00112777
X00369Y0012225
X00376Y000995
X00376Y00094277
X003755Y00082
X0038225Y0008175
X0038575Y00087527
X0039625Y00108
X0041397Y00108169
X004173Y001115
X0042063Y00108169
X0042729Y00108169
X0042396Y001115
X0042729Y0011483
X0042063
X004173Y0011816
X0041064Y0011816
Y0012482
X0040398
X0040731Y0012815
X0040398Y0013148
X0040731Y0013481
X0041064Y0013148
Y0013814
X0041425Y00135
X0042Y00129
X004265Y0012875
X0042625Y0013625
X00432Y001365
X0043191Y0013151
X00432Y0012625
X0043062Y0011816
X0043062Y001115
X0044061Y0010817
X0044061Y0011483
X0044727Y0011483
X0044394Y0011816
X004506Y0011816
X0045393Y0011483
X0045725Y00111527
X0045726Y0010484
X0045393Y0010151
X0043575Y00096027
X0042071Y00085964
X0042056Y00080964
X0041925Y0007175
X0041525Y00068
X0041575Y0005475
X00407Y0006025
X0038175Y0005775
X00365409Y000575
X00367Y0006475
X003501Y000246
X0034235Y000196
X003346Y000246
X003255Y0003
X00320125
X0031475
X0031135Y000196
X003205Y000205
X004276Y000246
X0043535Y000196
X004431Y000246
X004586
X00448168Y00037417
Y00043917
Y00066417
Y00072917
X004565Y0008
X004663Y000833
X0048723Y00108169
X0049056Y001115
X0049389Y0011483
X0049389Y0012149
X0049056Y0012482
X0049056Y0013148
X0049389Y0013481
X0049722Y0013148
X0050388Y0013148
X0050055Y0012815
X0050055Y0012149
X0049722Y0013814
X005225Y001375
X00526Y001245
X0053125Y001295
X00525551Y00106573
X005135Y001015
X0054Y00102
Y000955
X00569853Y000955
Y00102
X0058675Y0009925
X00579Y0008475
X0057525Y00081
X005754Y0003505
X005635Y0003625
X005849Y000388
X0052725Y00032
X005205Y0002925
X0051875Y00018
X0052375
X0051375
X004896Y000246
X0048185Y000196
X0049575Y00037
X005015Y00072
X005065
X0052675Y00075
X004839Y0011816
X0047191Y0013151
Y0013651
X0046191Y0013151
X0045191Y0013141
X0044191Y0013151
X00442Y001365
X00391Y00130527
X004065Y00100277
X00341Y0013125
X0020175Y0012885
X0020175Y0013685
X0019925Y0011675
X0059725Y001115
X006025Y0009925
X0059875Y0008025
X0061025Y0006975
X00613Y0005878
X0063675Y0006025
X0064225
X0064925Y0006445
Y0004895
X006555Y00045
X00671
X006865
X006845Y00035
X00653079Y000315
X006525Y0001375
X0062275Y000145
X00610212Y00028962
X005965Y00009
X0063Y000765
X0063325Y0009475
X006445Y0009475
X0064925Y001043
Y001198
X006555Y0012375
X00671
X006865
X00623Y00129
X006175
X00612
X0062625Y0014275
Y001485
X0064125Y00145
X0065Y0014825
Y0016525
X00652Y00174
X006555Y0019
X0064925Y0019395
Y0020945
X006425Y0021875
X00621Y00219
X006125Y0019825
X006075Y0018
X0060025Y00238
X0060675Y0025375
X00599Y0026975
X005971Y002891
X0058935Y0029435
X006135Y00286
X00626303Y00289199
X0062425Y0029525
X0063225Y002975
X006385Y00295
X0063825Y0027275
X0063275
X0064225Y0025875
X0064225Y00254
X0064925Y002493
Y002648
X006555Y0026875
X00671
X006865
X006855Y0028175
X0067475Y00295
X006345Y0023925
X00671Y0019
X006865
X0067225Y0016525
X0067975Y0015685
X0067225Y00148225
X006525Y0037745
X00653079Y003952
X006555Y004087
X0064925Y0041265
Y0042815
X0064225Y0042395
X0063675
X0063Y004402
X0063325Y0045845
X006445Y0045845
X0064925Y00468
Y004835
X006555Y0048745
X00671
X006865
X0067225Y00511925
X0067975Y0052055
X0067225Y0052895
X0065
Y0051195
X0064125Y005087
X0062625Y0050645
Y005122
X00623Y004927
X006175
X00612
X0059725Y004752
X006025Y0046295
X0059875Y0044395
X0061025Y0043345
X00613Y0042248
X00610212Y00392662
X0062275Y003782
X005965Y003727
X00671Y004087
X006865
X006845Y003987
X005849Y004025
X005754Y0039875
X005635Y0039995
X0052725Y003957
X005205Y0039295
X0051875Y003817
X0052375
X0051375
X004896Y003883
X0048185Y003833
X004586Y003883
X004431
X0043535Y003833
X004276Y003883
X00448168Y00401118
Y00407618
Y00430117
Y00436617
X004565Y004437
X004663Y00447
X0045393Y0046521
X0045726Y0046854
X0045725Y00475227
X0045393Y0047853
X004506Y0048186
X0044394Y0048186
X0044727Y0047853
X0044061Y0047853
X0044061Y0047187
X0043062Y004752
X0042396Y004752
X0042729Y0047853
X0042063
X004173Y0048186
X0041064Y0048186
Y0048852
X0040398
X0040731Y0049185
X0040398Y0049518
X0040731Y0049851
X0041064Y0049518
Y0050184
X0040731Y0050517
X0040398Y005085
X0040731Y0051183
X0041064Y005085
X0041397Y0051183
X0041397Y0051849
X0041064Y0052182
X0040731Y0052515
X0040398Y0052182
X0040731Y0051849
X0040065Y0052515
X0040398Y0053514
X0041064Y0053514
X0041397Y0053181
X0043191Y0053021
Y0052521
X0044191
Y0053021
Y0053521
X0043191
Y0051521
Y0051021
Y0050521
X00432Y005002
X0043191Y0049521
X00432Y0048995
X004265Y0049245
X0042Y004927
X0041425Y004987
X0041401Y00505164
X0042625Y0049995
X00442Y005002
X0044191Y0049521
Y0050521
Y0051021
Y0051521
X0045191Y0051511
Y0050511
Y0049511
X0046191Y0049521
X0047191
Y0050021
Y0050521
Y0051021
Y0051521
X0046191
Y0051021
Y0050521
Y0052521
Y0053021
Y0053521
X0047191
Y0053021
Y0052521
X0047825Y0052745
Y0053245
Y0053745
X0048075Y0052245
X004835Y005172
Y0051145
X0049722Y005085
Y0050184
Y0049518
X0049389Y0049851
X0049056Y0049518
X0049056Y0048852
X0049389Y0048519
X0050055
X0050055Y0049185
X0050388Y0049518
X0050721Y0050517
X0052254Y0050679
X005225Y005012
X005285Y00510303
X0053275Y005252
X0051575Y0052445
X0051905Y005362
X00526Y004882
X0053125Y004932
X00525551Y00470273
X005135Y004652
X0054Y004657
Y004592
X00569853Y004592
Y004657
X0058675Y0046295
X00579Y0044845
X0057525Y004447
X0052675Y004387
X005065Y004357
X005015
X0049575Y004007
X0048723Y0047187
X0049056Y004752
X0049389Y0047853
X004839Y0048186
X0043062Y0048186
X0042729Y0047187
X0042063Y0047187
X0041397
X004173Y004752
X004065Y00463977
X0039625Y004717
X00391Y00494227
X0038951Y00516414
X0037675Y0052395
X00365Y00518977
X003565Y00513477
X0034375Y005102
X00341Y0049495
X00369Y0048595
X0036475Y00476477
X00361Y00465477
X0035375Y00457977
X0035475Y004397
X00367Y0042845
X00365409Y004212
X0038175Y0042145
X0038225Y0044545
X003755Y004457
X00376Y00457977
X00376Y004632
X0038575Y00451227
X0042071Y00449664
X0042056Y00444664
X0041925Y0043545
X0041525Y004317
X0041575Y0041845
X00407Y0042395
X0043575Y00459727
X0045191Y0052511
Y0053011
Y0053511
X00364163Y0053514
X0036025Y0053095
X0031775Y004547
X0031825Y0044445
X00321Y0044045
X003155
X0030375Y0044095
X00301Y004362
X0030125Y004307
X0029375Y004222
X002885Y004362
X002835Y004362
X0028Y004322
X0028475Y004442
X00276Y004587
X00263Y004607
Y0045545
X00259Y004582
X002565Y0043845
X0026275Y0043845
X002595Y004347
X002569Y0042095
X002651
X00272
X0027575Y0040445
X0028075Y0040445
X0026425Y0040695
X00266859Y00395351
X0024725Y004052
X002446Y003848
X00236Y0037595
X0021675Y004207
X00221Y0042845
X00222Y004447
X00233Y0044795
X0020125Y004482
X0020225Y004427
X0019925Y0048045
X0020175Y0049255
X0020175Y0050055
X0020175Y0050855
Y0051655
Y0053255
X00305Y004612
X0031475Y003937
X00320125
X003255
X003205Y003842
X0031135Y003833
X003346Y003883
X0034235Y003833
X003501Y003883
X0037175Y003005
X0039275
X004055Y0027525
X00411Y0027625
X00404Y002575
X0040375Y0024625
X003915Y0023725
X0038325Y002385
X0038325Y002435
X003795Y0024775
X00379Y0025275
X0037225Y0024375
X003625Y0024875
X003575Y0024875
X003465Y00258
X0033625Y002515
X0032Y0025425
X0032475Y0026025
X0032175Y002675
X00319944Y00280413
X003181Y002891
X0031135Y0029435
X0032585
X003595Y0028075
X003595Y0027525
X0039025Y0025875
X0039251Y00227764
X00384
X0038675Y0021825
X003985Y00209527
X00406Y002265
X0041725Y00224
X0042525Y00223
X0042396Y002114
X0042729Y0020807
X0043062Y0020474
X0042396
X0042729Y0019475
X0043728Y0019808
X0044061Y0020141
X0043395
X0043395Y0020807
X0044394Y0020474
X0044727Y0020141
X004506Y0020474
X0045393Y0020807
X0044976Y00196714
X0045191Y0018141
Y0017641
Y0017141
Y0016641
Y0016141
Y0015141
Y0014141
X0046191Y0014151
Y0014651
Y0015151
X0047191
Y0014651
Y0014151
X004835Y0014775
Y001535
X0048075Y0015875
X0047825Y0016375
Y0016875
Y0017375
Y0017875
X0047826Y00185214
Y00190214
X0047191Y0018151
Y0017651
Y0017151
Y0016651
Y0016151
X0046191
Y0016651
Y0017151
Y0017651
Y0018151
X0044191
Y0017651
X0043691
Y0018151
X0043191Y0018151
Y0017151
Y0016651
Y0016151
X0044191
Y0016651
Y0017151
Y0015151
Y0014651
Y0014151
X0043191
Y0014651
Y0015151
X0041397Y0015479
X0041064Y0015812
X0040731Y0016145
X0040398Y0015812
X0040731Y0015479
Y0014813
X0041064Y001448
X0041397Y0014813
X0041401Y00141464
X0040731Y0014147
X0040398Y001448
X0040065Y0016145
X0040398Y0017144
X0040731Y0017477
X0041064Y0017144
X0041397Y0017477
X0041064Y001781
X0040731Y0018143
Y0018809
X0041064Y0018476
X0041397Y0018143
X0040398Y0018476
X0041064Y0019142
X0041397Y0016811
X0038951Y00152714
X0037675Y0016025
X00365Y00155277
X003565Y00149777
X0034375Y001465
X0036025Y0016725
X00364163Y0017144
X0033325Y00178
X00325Y001985
X0031975Y002235
X003195Y002415
X00306Y0025325
X0029975Y0025475
X0028Y002555
Y002405
X00252Y002395
Y0024475
X002515Y00251
X0024675Y0025275
X0025275Y002726
X002315Y0027325
X0021625Y0027425
X002115Y0027425
X002065Y0027285
X002015
X001965
X001995Y0025235
Y0024135
X0022Y0023935
X0021925Y0023435
X0022Y0024935
X0022Y0025435
Y0025935
X0023525Y0023225
X002015Y0022085
X0020175Y0019285
X0020175Y0016885
Y0015285
Y0014485
X0020185Y002936
X00207Y00289999
X0023285Y002936
X002415Y002935
X0028365Y0027935
X00288Y0028275
X002915Y00279
X0029Y0021975
X0034825Y0023725
X00428Y002525
X004595Y0023775
X0046625Y00228
X00471Y0021275
X0046725Y0020141
X0047058Y0019808
X0049389Y0018809
X0049056Y0018476
Y001781
X0049722
X0050055Y0018143
X0050388Y0018476
X0051125Y001895
X005333Y00187
X005315Y00202
X0054155Y00197
X0055425Y002035
X00563499
X00569
X005745
X0056025Y0021675
X0056475Y0023125
X005689Y0024395
X0056025Y00245
X0057125Y002515
X00586Y0025375
X00544Y0023525
Y00226
X0052525Y0025825
X005244Y002767
X005196Y002891
X00525Y0029425
X0051675Y0030025
X005125Y002965
X005065Y003
X0050125
X0048635Y0029435
X004691
X00462601
X0045575Y0029425
X0044985Y0029435
X0044225Y0029425
X004421Y002891
X0043435Y0029435
X0047625Y0026875
X004765Y002585
X0050075Y0025
X005039Y002767
X0054075Y0029875
X00507Y0021025
X0049575Y0021275
X0051905Y001725
X0051575Y0016075
X0053275Y001615
X005285Y00146603
X0052254Y0014309
X0050721Y0014147
X0049722Y001448
X0054155Y00177
X00576Y00177
X00578Y0016175
Y0014875
Y0051245
Y0052545
X001885Y0052855
Y0052055
X001875Y0051505
X0018425Y005082
X001885Y0050455
X0018875Y004888
X0018225Y0048255
X0017425
X0016625Y0048255
X0015025Y0048255
X0014225Y0048255
X0013425Y0048255
X0012625
X0011825Y0048255
X001225Y0048745
X0011825Y004922
X0012825Y0049855
X0013925Y0049855
Y0050955
X0012825
X0012825Y0052055
Y0053155
X0013925
X0015025
X0016125
Y0052055
X0015025
Y0050955
X0016125Y0050955
X0017225
Y0052055
Y0053155
X001885Y0053655
X0017225Y0049855
X0016125
X0015025
X0013925Y0052055
X001164Y0052455
X0011175Y0052855
Y0051655
Y0050455
X0009875Y0048455
X0008775Y0048245
X00064Y004737
X00064Y0046845
X0005875Y0046845
X0005875Y004737
X0005575Y004602
X0005425Y0045295
X00058875
X00067Y0044545
X0007275Y004377
X000735Y004252
X000615Y004267
Y004202
X00066614Y0041845
X0006625Y0041095
X00061Y004032
X0006625Y0039545
X0007375Y003937
X00073401Y003883
X0008Y004087
X000855
X00091179Y0041645
Y00421521
X0012425Y004302
X0013725
X0014375Y004407
Y0044545
X00144Y004572
X0014625Y0046905
X0013825
X0013025Y0046905
X0012225Y0046905
X0011425Y0046905
X00112Y0045045
X00111Y004457
X0011975Y0045245
X0012975Y0044595
Y0044145
X00123Y004072
X0011675Y004052
X001435Y0041095
X001615Y0040545
X001815Y004052
X001825Y0042895
X0017535
X0016715
X0016975Y004427
X0016675Y0044645
X00173Y0044645
X001825Y0044645
X00189
X0018575Y004427
X0018625Y0046905
X0017825Y0046905
X0017025Y0046905
X0016225
X0015425
X00150901Y0038805
X00158651Y003838
X00166401Y0038805
X00170851Y002936
X00178601Y002891
X0018635Y0029385
X001865Y0027285
X001815
X00168Y0025935
X00167Y00251
X00167Y002406
X0016675Y002356
X0016125Y0023425
Y0023975
X00164Y00223
X001688Y0022305
X0017025Y0020835
X0016225
X0015825Y002115
X0015425Y0020835
X0014625
X0013825Y0020835
X0013025
X00125Y0022
X001235Y00227
X0012325Y0024575
X0011775
X00111Y0024325
X00127Y0025375
X0012475Y0026
Y002655
X001265Y00273
X0010575Y00279
X0008975Y0027975
X0009375Y0026775
X0008235Y0027035
X0008325Y0025075
X0007625
X0006625Y0025095
X00060875Y00249875
X00061Y002432
X000545Y002435
X000595Y0022425
X0006225Y00197
Y0019075
X0006225Y0018295
Y001767
X0003775Y001845
X0003775Y001895
X0003275Y001895
X0003275Y001845
X0003775Y001595
X0003775Y001545
X000225Y00157
X000685Y0014975
Y0014395
X0007275Y001407
Y00153
X0011175Y0015285
Y0016485
X001164Y0016085
X0012825Y0015685
Y0016785
X0013925
X0015025
X0016125
Y0015685
X0015025
Y0014585
X0016125Y0014585
X0017225
Y0015685
Y0016785
Y0017885
X0016125
X0015025
X0013925
X0012825
X0011775Y0018675
X0011275Y0018385
Y0018985
X001095Y0019775
X00113Y002125
X0009275Y002095
X00092Y002155
X0008775Y002195
X0008775Y002345
X00075Y0019675
X0009075Y001815
X0011175Y0017685
X0012625Y0019535
X0013425
X0014225
X0015025Y0019535
X0014875Y0018925
X0015425Y0018925
X0015825Y0019535
X0016625
X00171Y001925
X001885Y0018885
Y0018085
X001885Y0017285
X001885Y0016485
Y0015685
X001875Y0015135
X0018425Y001445
X001885Y0014085
X0013925Y0014585
X0012825
X0011175Y0014085
X0013925Y0015685
X0017825Y0020835
X0018625
X001865Y0022085
X001885Y0024135
Y0025235
X00143Y0026
X001505Y0028375
X00072Y0028675
X00062Y0028375
X00061Y002742
X000615Y0043495
X000485Y004357
X000375Y0048795
X000375Y0049295
X000325Y0049295
X000325Y0048795
X000205Y004862
X000225Y005207
X0003775Y005182
X0003775Y005232
X000685Y0051345
Y0050765
X0007275Y005044
Y005167
X0006225Y005404
Y0054665
X0006225Y0055445
Y005607
X00075Y0056045
X0009275Y005732
X00092Y005792
X0008775Y005832
X0008775Y005982
X0008325Y0061445
X0007625
X0006625Y0061465
X00060875Y00613575
X00061Y006069
X000545Y006072
X000595Y0058795
X00061Y006379
X00062Y0064745
X00072Y0065045
X0008975Y0064345
X0009375Y0063145
X0008235Y0063405
X0010575Y006427
X001265Y006367
X0012475Y006292
Y006237
X00127Y0061745
X0012325Y0060945
X0011775
X00111Y0060695
X001235Y005907
X00125Y005837
X0013025Y0057205
X0013825
X0014625Y0057205
X0015425
X0015825Y005752
X0016225Y0057205
X0017025
X0017825
X0018625
X001865Y0058455
X001688Y0058675
X00164Y005867
X0016125Y0059795
Y0060345
X00167Y006043
X0016675Y005993
X00167Y006147
X00168Y0062305
X00143Y006237
X001505Y0064745
X00170851Y006573
X00178601Y006528
X0018635Y0065755
X001865Y0063655
X001815
X001885Y0061605
Y0060505
X001885Y0055255
Y0054455
X0017225Y0054255
X0016125
X0015025
X0013925
X0012825
X0011775Y0055045
X0011275Y0054755
Y0055355
X001095Y0056145
X00113Y005762
X0012625Y0055905
X0013425
X0014225
X0015025Y0055905
X0014875Y0055295
X0015425Y0055295
X0015825Y0055905
X0016625
X00171Y005562
X0011175Y0054055
X0009075Y005452
X0003775Y005482
X0003775Y005532
X0003275Y005532
X0003275Y005482
X0006625Y0075915
X0007375Y007574
X00073401Y00752
X0008Y007724
X000855
X00091179Y0078015
Y00785221
X000735Y007889
X0007275Y008014
X00067Y0080915
X00058875Y0081665
X0005425
X0005575Y008239
X0005875Y0083215
X00064Y0083215
X00064Y008374
X0005875Y008374
X000375Y0085165
X000375Y0085665
X000325Y0085665
X000325Y0085165
X000205Y008499
X000225Y008844
X0003775Y008819
X0003775Y008869
X0003775Y009119
X0003775Y009169
X0003275Y009169
X0003275Y009119
X0006225Y0091035
Y009041
X0006225Y0091815
Y009244
X00075Y0092415
X0009075Y009089
X0011275Y0091125
Y0091725
X0011775Y0091415
X0011175Y0090425
Y0089225
X001164Y0088825
X0011175Y0088025
Y0086825
X0011825Y008559
X001225Y0085115
X0012625Y0084625
X0013425
X0014225Y0084625
X0015025Y0084625
X0016625Y0084625
X0017425Y0084625
X0018225
X0018875Y008525
X001885Y0086825
X0018425Y008719
X001875Y0087875
X001885Y0088425
Y0089225
X001885Y0090025
X001885Y0090825
Y0091625
X00171Y009199
X0016625Y0092275
X0015825
X0015025Y0092275
X0014875Y0091665
X0015425Y0091665
X0015025Y0090625
X0016125
X0017225
Y0089525
Y0088425
Y0087325
Y0086225
X0016125
X0015025
Y0087325
Y0088425
X0016125
Y0089525
X0015025
X0013925
Y0090625
X0012825
Y0089525
Y0088425
X0013925
X0013925Y0087325
Y0086225
X0012825Y0086225
X0012825Y0087325
X0016125
X0016225Y0083275
X0017025
X0017825Y0083275
X0018625Y0083275
X00189Y0081015
X001825
X0018575Y008064
X0016975Y008064
X0016675Y0081015
X00173Y0081015
X0017535Y0079265
X001825
X0016715
X001615Y0076915
X001815Y007689
X00166401Y0075175
X00158651Y007475
X00150901Y0075175
X001435Y0077465
X00123Y007709
X0011675Y007689
X0012425Y007939
X0013725
X0014375Y008044
Y0080915
X00144Y008209
X0014625Y0083275
X0013825
X0013025Y0083275
X0012225Y0083275
X0011425Y0083275
X0011825Y0084625
X0009875Y0084825
X0008775Y0084615
X0007275Y008681
X000685Y0087135
Y0087715
X0007275Y008804
X001095Y0092515
X0012625Y0092275
X0013425
X0014225
X0015425Y0083275
X0012975Y0080965
Y0080515
X0011975Y0081615
X00112Y0081415
X00111Y008094
X000615Y0079865
Y007904
Y007839
X00066614Y0078215
X0006625Y0077465
X00061Y007669
X000485Y007994
X0020225Y008064
X0020125Y008119
X00222Y008084
X00233Y0081165
X00221Y0079215
X0021675Y007844
X002569Y0078465
X002651
X00272
X0028Y007959
X002835Y007999
X002885Y007999
X0028475Y008079
X0030375Y0080465
X00301Y007999
X0030125Y007944
X0029375Y007859
X0028075Y0076815
X0027575Y0076815
X0026425Y0077065
X00266859Y00759051
X0024725Y007689
X002446Y007485
X00236Y0073965
X002595Y007984
X002565Y0080215
X0026275Y0080215
X00263Y0081915
Y008244
X00259Y008219
X00276Y008224
X00305Y008249
X0031775Y008184
X0031825Y0080815
X00321Y0080415
X003155
X0035475Y008034
X0035375Y00821677
X00361Y00829177
X0036475Y00840177
X00369Y0084965
X00376Y008269
X00376Y00821677
X003755Y008094
X0038225Y0080915
X0038575Y00814927
X0039625Y008354
X0041397Y0083557
X004173Y008389
X0042063Y0083557
X0042729Y0083557
X0042396Y008389
X0042729Y0084223
X0042063
X004173Y0084556
X0041064Y0084556
Y0085222
X0040398
X0040731Y0085555
X0040398Y0085888
X0040731Y0086221
X0041064Y0085888
Y0086554
X0040731Y0086887
X0040398Y008722
X0040731Y0087553
X0041064Y008722
X0041397Y0087553
X0041397Y0088219
X0041064Y0088552
X0040731Y0088885
X0040398Y0088552
X0040731Y0088219
X0040065Y0088885
X0040398Y0089884
X0040731Y0090217
X0041064Y0089884
X0041397Y0090217
X0041064Y009055
X0040731Y0090883
Y0091549
X0041064Y0091216
X0041397Y0090883
X0040398Y0091216
X0041064Y0091882
X0042729Y0092215
X0042396Y0093214
X0043062
X0043395Y0092881
X0044061
X0043728Y0092548
X0044394Y0093214
X0044727Y0092881
X004506Y0093214
X0044976Y00924114
X0045191Y0090881
Y0090381
Y0089881
Y0089381
Y0088881
Y0087881
Y0086881
Y0085881
X0046191Y0085891
X0047191
Y0086391
Y0086891
Y0087391
Y0087891
X0046191
Y0087391
Y0086891
Y0088891
Y0089391
Y0089891
Y0090391
Y0090891
X0047191
Y0090391
Y0089891
Y0089391
Y0088891
X0047825Y0089115
Y0089615
Y0090115
Y0090615
X0047826Y00912614
Y00917614
X0047058Y0092548
X0046725Y0092881
X0049389Y0091549
X0049056Y0091216
Y009055
X0049722
X0050055Y0090883
X0050388Y0091216
X0051125Y009169
X005333Y009144
X005315Y009294
X0054155Y009244
X0055425Y009309
X00563499
X00569
X005745
X00576Y009044
X00578Y0088915
Y0087615
X005285Y00874003
X0052254Y0087049
X005225Y008649
X00526Y008519
X0053125Y008569
X00525551Y00833973
X005135Y008289
X0054Y008294
Y008229
X00569853Y008229
Y008294
X0058675Y0082665
X00579Y0081215
X0057525Y008084
X005754Y0076245
X005635Y0076365
X005849Y007662
X0052725Y007594
X005205Y0075665
X0051875Y007454
X0052375
X0051375
X004896Y00752
X0048185Y00747
X004586Y00752
X004431
X0043535Y00747
X004276Y00752
X00448168Y00764818
Y00771318
Y00793817
Y00800317
X004565Y008074
X004663Y008107
X0045393Y0082891
X0045726Y0083224
X0045725Y00838927
X0045393Y0084223
X004506Y0084556
X0044394Y0084556
X0044727Y0084223
X0044061Y0084223
X0044061Y0083557
X0043062Y008389
X0043062Y0084556
X00432Y0085365
X0043191Y0085891
X00432Y008639
X0043191Y0086891
Y0087391
Y0087891
X0044191
Y0087391
Y0086891
X00442Y008639
X0044191Y0085891
X004265Y0085615
X0042Y008564
X0041425Y008624
X0041401Y00868864
X0042625Y0086365
X0043191Y0088891
Y0089391
Y0089891
X0043691Y0090391
X0044191
Y0089891
Y0089391
Y0088891
Y0090891
X0043691Y0090891
X0043191Y0090891
X0041397Y0089551
X0038951Y00880114
X0037675Y0088765
X00365Y00882677
X003565Y00877177
X0034375Y008739
X00341Y0085865
X00391Y00857927
X004065Y00827677
X0042071Y00813364
X0042056Y00808364
X0041925Y0079915
X0041525Y007954
X0041575Y0078215
X00407Y0078765
X0038175Y0078515
X00365409Y007849
X00367Y0079215
X003501Y00752
X0034235Y00747
X003346Y00752
X003255Y007574
X00320125
X0031475
X0031135Y00747
X003205Y007479
X0032585Y0065805
X003181Y006528
X00319944Y00644113
X0032175Y006312
X0032475Y0062395
X0032Y0061795
X003195Y006052
X0031975Y005872
X00325Y005622
X0033325Y005417
X0034825Y0060095
X003575Y0061245
X003625Y0061245
X0037225Y0060745
X0038325Y006072
X0038325Y006022
X003915Y0060095
X0039251Y00591464
X00384
X0038675Y0058195
X003985Y00573227
X00406Y005902
X0041725Y005877
X0042525Y005867
X0042396Y005751
X0042729Y0057177
X0043062Y0056844
X0042396
X0042729Y0055845
X0043728Y0056178
X0044061Y0056511
X0043395
X0043395Y0057177
X0044394Y0056844
X0044727Y0056511
X004506Y0056844
X0045393Y0057177
X0044976Y00560414
X0045191Y0054511
Y0054011
X0044191Y0054021
X0043691
Y0054521
X0043191Y0054521
X0044191
X0046191
Y0054021
X0047191Y0054021
Y0054521
X0047825Y0054245
X0047826Y00548914
Y00553914
X0047058Y0056178
X0046725Y0056511
X00471Y0057645
X0046625Y005917
X004595Y0060145
X004765Y006222
X0047625Y0063245
X004691Y0065805
X00462601
X0045575Y0065795
X0044985Y0065805
X0044225Y0065795
X004421Y006528
X0043435Y0065805
X00411Y0063995
X004055Y0063895
X00404Y006212
X0040375Y0060995
X003795Y0061145
X00379Y0061645
X0039025Y0062245
X00428Y006162
X0050075Y006137
X005039Y006404
X005244
X005196Y006528
X00525Y0065795
X0051675Y0066395
X005125Y006602
X005065Y006637
X0050125
X0048635Y0065805
X0054075Y0066245
X0052525Y0062195
X00544Y0059895
Y005897
X0056025Y0058045
X00563499Y005672
X00569
X005745
X0055425
X0054155Y005607
X005315Y005657
X005333Y005507
X0054155Y005407
X00576Y005407
X0056475Y0059495
X005689Y0060765
X0056025Y006087
X0057125Y006152
X00586Y0061745
X00507Y0057395
X0049575Y0057645
X0049389Y0055179
X0049056Y0054846
Y005418
X0049722
X0050055Y0054513
X0050388Y0054846
X0051125Y005532
X0041064Y0055512
Y0054846
X0040731Y0055179
X0040398Y0054846
X0040731Y0054513
X0041064Y005418
X0041397Y0053847
Y0054513
X0040731Y0053847
X0039275Y006642
X0037175
X003595Y0064445
X003595Y0063895
X003465Y006217
X0033625Y006152
X00306Y0061695
X0029975Y0061845
X0028Y006192
Y006042
X00252Y006032
Y0060845
X002515Y006147
X0024675Y0061645
X0025275Y006363
X002315Y0063695
X0021625Y0063795
X002115Y0063795
X002065Y0063655
X002015
X001965
X001995Y0061605
Y0060505
X0022Y0060305
X0021925Y0059805
X0022Y0061305
X0022Y0061805
Y0062305
X0023525Y0059595
X002015Y0058455
X0020175Y0055655
X0020185Y006573
X00207Y00653699
X0023285Y006573
X002415Y006572
X0028365Y0064305
X00288Y0064645
X002915Y006427
X0031135Y0065805
X0029Y0058345
X0019925Y0084415
X0020175Y0085625
X0020175Y0086425
X0020175Y0087225
Y0088025
Y0089625
X0020175Y0092025
X00325Y009259
X0033325Y009054
X00364163Y0089884
X0036025Y0089465
X0048075Y0088615
X004835Y008809
Y0087515
X0049722Y008722
Y0086554
Y0085888
X0049389Y0086221
X0049056Y0085888
X0049056Y0085222
X0049389Y0084889
X0050055
X0050055Y0085555
X0050388Y0085888
X0050721Y0086887
X0051575Y0088815
X0051905Y008999
X0053275Y008889
X0054155Y009044
X0049389Y0084223
X0049056Y008389
X0048723Y0083557
X004839Y0084556
X005015Y007994
X005065
X0052675Y008024
X0049575Y007644
X0043575Y00823427
X006025Y0082665
X0059725Y008389
X00612Y008564
X006175
X00623
X0062625Y0087015
Y008759
X0064125Y008724
X0065Y0087565
Y0089265
X00652Y009014
X006555Y009174
X0064925Y0092135
X00671Y009174
X006865
X0067225Y0089265
X0067975Y0088425
X0067225Y00875625
X00671Y0085115
X006555
X0064925Y008472
Y008317
X006445Y0082215
X0063325Y0082215
X0063Y008039
X0063675Y0078765
X0064225
X0064925Y0079185
Y0077635
X006555Y007724
X00671
X006865
X006845Y007624
X00653079Y007589
X006525Y0074115
X0062275Y007419
X00610212Y00756362
X00613Y0078618
X0061025Y0079715
X0059875Y0080765
X005965Y007364
X005971Y006528
X0058935Y0065805
X006135Y006497
X00626303Y00652899
X0062425Y0065895
X0063225Y006612
X006385Y006587
X0063825Y0063645
X0063275
X0064225Y0062245
X0064225Y006177
X0064925Y00613
Y006285
X006555Y0063245
X00671
X006865
X006855Y0064545
X0067475Y006587
X006345Y0060295
X006425Y0058245
X0064925Y0057315
Y0055765
X006555Y005537
X00671
X006865
X00652Y005377
X006075Y005437
X006125Y0056195
X00621Y005827
X0060025Y006017
X0060675Y0061745
X00599Y0063345
X006075Y009074
X006125Y0092565
X006865Y0085115
X0064925Y0093685
X006425Y0094615
X00621Y009464
X006345Y0096665
X0064225Y009814
X0064225Y0098615
X0064925Y009922
X006555Y0099615
X00671
X006865
X006855Y0100915
X0067475Y010224
X006385
X0063225Y010249
X0062425Y0102265
X00626303Y010166
X006135Y010134
X005971Y010165
X0058935Y0102175
X00599Y0099715
X0060675Y0098115
X0060025Y009654
X0064925Y009767
X0063825Y0100015
X0063275
X0062275Y011056
X00610212Y01120062
X00613Y0114988
X0061025Y0116085
X0059875Y0117135
X006025Y0119035
X0059725Y012026
X00612Y012201
X006175
X00623
X0062625Y0123385
Y012396
X0064125Y012361
X0065Y0123935
Y0125635
X00652Y012651
X006555Y012811
X0064925Y0128505
Y0130055
X006425Y0130985
X00621Y013101
X006125Y0128935
X006075Y012711
X0060025Y013291
X006345Y0133035
X00671Y012811
X006865
X0067225Y0125635
X0067975Y0124795
X0067225Y01239325
X00671Y0121485
X006555
X0064925Y012109
Y011954
X006445Y0118585
X0063325Y0118585
X0063Y011676
X0063675Y0115135
X0064225
X0064925Y0115555
Y0114005
X006555Y011361
X00671
X006865
X006845Y011261
X00653079Y011226
X006525Y0110485
X005965Y011001
X006865Y0121485
X0058675Y0119035
X00569853Y011931
Y011866
X00579Y0117585
X0057525Y011721
X005754Y0112615
X005635Y0112735
X005849Y011299
X0052725Y011231
X005205Y0112035
X0051875Y011091
X0052375
X0051375
X004896Y011157
X0048185Y011107
X004586Y011157
X004431
X0043535Y011107
X004276Y011157
X00448168Y01128518
Y01135018
Y01157517
Y01164017
X004565Y011711
X004663Y011744
X0045393Y0119261
X0045726Y0119594
X0045725Y01202627
X0045393Y0120593
X004506Y0120926
X0044394Y0120926
X0044727Y0120593
X0044061Y0120593
X0044061Y0119927
X0043062Y012026
X0042396Y012026
X0042729Y0120593
X0042063
X004173Y0120926
X0041064Y0120926
Y0121592
X0040398
X0040731Y0121925
X0040398Y0122258
X0040731Y0122591
X0041064Y0122258
Y0122924
X0040731Y0123257
X0040398Y012359
X0040731Y0123923
X0041064Y012359
X0041397Y0123923
X0041397Y0124589
X0041064Y0124922
X0040731Y0125255
X0040398Y0124922
X0040731Y0124589
X0040065Y0125255
X0040398Y0126254
X0040731Y0126587
X0041064Y0126254
X0041397Y0126587
X0041064Y012692
X0040731Y0127253
Y0127919
X0041064Y0127586
X0041397Y0127253
X0040398Y0127586
X0041064Y0128252
X0042729Y0128585
X0042396Y0129584
X0042729Y0129917
X0043062Y0129584
X0043395Y0129917
X0043395Y0129251
X0044061
X0043728Y0128918
X0044394Y0129584
X0044727Y0129251
X004506Y0129584
X0045393Y0129917
X0044976Y01287814
X0045191Y0127251
Y0126751
Y0126251
Y0125751
Y0125251
Y0124251
Y0123251
Y0122251
X0046191Y0122261
X0047191
Y0122761
Y0123261
Y0123761
Y0124261
X0046191
Y0123761
Y0123261
Y0125261
Y0125761
Y0126261
Y0126761
Y0127261
X0047191
Y0126761
Y0126261
Y0125761
Y0125261
X0047825Y0125485
Y0125985
Y0126485
Y0126985
X0047826Y01276314
Y01281314
X0047058Y0128918
X0046725Y0129251
X00471Y0130385
X0046625Y013191
X004595Y0132885
X0042525Y013141
X0041725Y013151
X00406Y013176
X0039251Y01318864
X00384
X0038325Y013296
X003915Y0132835
X0038675Y0130935
X003985Y01300627
X0042396Y013025
X0043191Y0127261
X0043691Y0127261
Y0126761
X0044191
Y0126261
Y0125761
Y0125261
X0043191
Y0125761
Y0126261
X0044191Y0127261
Y0124261
Y0123761
Y0123261
X00442Y012276
X0044191Y0122261
X0043191
X00432Y012276
X0043191Y0123261
Y0123761
Y0124261
X0042625Y0122735
X004265Y0121985
X0042Y012201
X0041425Y012261
X0041401Y01232564
X0041397Y0125921
X0038951Y01243814
X0037675Y0125135
X00365Y01246377
X003565Y01240877
X0034375Y012376
X00341Y0122235
X00369Y0121335
X0036475Y01203877
X00361Y01192877
X0035375Y01185377
X0035475Y011671
X00367Y0115585
X00365409Y011486
X0038175Y0114885
X0038225Y0117285
X003755Y011731
X00376Y01185377
X00376Y011906
X0038575Y01178627
X0039625Y011991
X0041397Y0119927
X004173Y012026
X0042063Y0119927
X0042729Y0119927
X0043062Y0120926
X00432Y0121735
X0043575Y01187127
X0042071Y01177064
X0042056Y01172064
X0041925Y0116285
X0041525Y011591
X0041575Y0114585
X00407Y0115135
X004065Y01191377
X00391Y01221627
X0036025Y0125835
X00364163Y0126254
X0033325Y012691
X00325Y012896
X0031975Y013146
X0029Y0131085
X00252Y013306
X0023525Y0132335
X0021925Y0132545
X0022Y0133045
X002015Y0131195
X0020175Y0128395
X0020175Y0125995
Y0124395
Y0123595
X0020175Y0122795
X0020175Y0121995
X0019925Y0120785
X0020125Y011756
X0020225Y011701
X00222Y011721
X00233Y0117535
X00221Y0115585
X0021675Y011481
X002569Y0114835
X002651
X00272
X0028Y011596
X002835Y011636
X002885Y011636
X0028475Y011716
X0030375Y0116835
X00301Y011636
X0030125Y011581
X0029375Y011496
X0028075Y0113185
X0027575Y0113185
X0026425Y0113435
X00266859Y01122751
X0024725Y011326
X002446Y011122
X00236Y0110335
X002595Y011621
X002565Y0116585
X0026275Y0116585
X00263Y0118285
Y011881
X00259Y011856
X00276Y011861
X00305Y011886
X0031775Y011821
X0031825Y0117185
X00321Y0116785
X003155
X0031475Y011211
X00320125
X003255
X003205Y011116
X0031135Y011107
X003346Y011157
X0034235Y011107
X003501Y011157
X0037175Y010279
X0039275
X004055Y0100265
X00411Y0100365
X00404Y009849
X0040375Y0097365
X003915Y0096465
X0038325Y009659
X0038325Y009709
X003795Y0097515
X00379Y0098015
X0037225Y0097115
X003625Y0097615
X003575Y0097615
X003465Y009854
X0033625Y009789
X0032Y0098165
X0032475Y0098765
X0032175Y009949
X00319944Y01007813
X003181Y010165
X0031135Y0102175
X0032585
X003595Y0100815
X003595Y0100265
X0039025Y0098615
X0039251Y00955164
X00384
X0038675Y0094565
X003985Y00936927
X00406Y009539
X0041725Y009514
X0042525Y009504
X0042396Y009388
X0042729Y0093547
X0043395
X0045393Y0093547
X00471Y0094015
X0046625Y009554
X004595Y0096515
X004765Y009859
X0047625Y0099615
X004691Y0102175
X00462601
X0045575Y0102165
X0044985Y0102175
X0044225Y0102165
X004421Y010165
X0043435Y0102175
X00428Y009799
X0050075Y009774
X005039Y010041
X005244
X005196Y010165
X00525Y0102165
X0051675Y0102765
X005125Y010239
X005065Y010274
X0050125
X0048635Y0102175
X0054075Y0102615
X0052525Y0098565
X00544Y0096265
Y009534
X0056025Y0094415
X0056475Y0095865
X005689Y0097135
X0056025Y009724
X0057125Y009789
X00586Y0098115
X00507Y0093765
X0049575Y0094015
X0034825Y0096465
X003195Y009689
X0031975Y009509
X0029Y0094715
X0028Y009679
Y009829
X0029975Y0098215
X00306Y0098065
X002915Y010064
X00288Y0101015
X0028365Y0100675
X0025275Y01
X002315Y0100065
X0021625Y0100165
X002115Y0100165
X002065Y0100025
X002015
X001965
X001995Y0097975
Y0096875
X0022Y0096675
X0021925Y0096175
X0022Y0097675
X0022Y0098175
Y0098675
X0024675Y0098015
X002515Y009784
X00252Y0097215
Y009669
X0023525Y0095965
X002015Y0094825
X0020185Y01021
X00207Y010174
X0023285Y01021
X002415Y010209
X0049575Y011281
X005015Y011631
X005065
X0052675Y011661
X00525551Y01197673
X005135Y011926
X0054Y011931
Y011866
X0053125Y012206
X00526Y012156
X005225Y012286
X0052254Y0123419
X005285Y01237703
X0053275Y012526
X0051575Y0125185
X0051905Y012636
X0051125Y012806
X0050388Y0127586
X0050055Y0127253
X0049722Y012692
X0049056
Y0127586
X0049389Y0127919
X0049575Y0130385
X00507Y0130135
X005315Y012931
X0054155Y012881
X005333Y012781
X0054155Y012681
X00576Y012681
X00578Y0125285
Y0123985
X005745Y012946
X00569
X00563499
X0055425
X0056025Y0130785
X0056475Y0132235
X00544Y0132635
Y013171
X0050721Y0123257
X0049722Y0122924
Y0122258
X0049389Y0122591
X0049056Y0122258
X0049056Y0121592
X0049389Y0121259
X0050055
X0050055Y0121925
X0050388Y0122258
X0049722Y012359
X004835Y0123885
Y012446
X0048075Y0124985
X004839Y0120926
X0049056Y012026
X0049389Y0120593
X0048723Y0119927
X0034825Y0132835
X001865Y0131195
X0018625Y0129945
X0017825
X0017025
X0016225
X0015825Y013026
X0015425Y0129945
X0014625
X0013825Y0129945
X0013025
X00125Y013111
X001235Y013181
X00113Y013036
X001095Y0128885
X0011275Y0128095
Y0127495
X0011775Y0127785
X0011175Y0126795
Y0125595
X001164Y0125195
X0011175Y0124395
Y0123195
X0011825Y012196
X001225Y0121485
X0012625Y0120995
X0013425
X0014225Y0120995
X0015025Y0120995
X0016625Y0120995
X0017425Y0120995
X0018225
X0018875Y012162
X001885Y0123195
X0018425Y012356
X001875Y0124245
X001885Y0124795
Y0125595
X001885Y0126395
X001885Y0127195
Y0127995
X00171Y012836
X0016625Y0128645
X0015825
X0015025Y0128645
X0014875Y0128035
X0015425Y0128035
X0015025Y0126995
X0016125
X0017225
Y0125895
Y0124795
Y0123695
Y0122595
X0016125
X0015025
Y0123695
Y0124795
X0016125
Y0125895
X0015025
X0013925
Y0126995
X0012825
Y0125895
Y0124795
X0013925
X0013925Y0123695
Y0122595
X0012825Y0122595
X0012825Y0123695
X0016125
X0016225Y0119645
X0017025
X0017825Y0119645
X0018625Y0119645
X00189Y0117385
X001825
X0018575Y011701
X0016975Y011701
X0016675Y0117385
X00173Y0117385
X0017535Y0115635
X001825
X0016715
X001615Y0113285
X001815Y011326
X00166401Y0111545
X00158651Y011112
X00150901Y0111545
X001435Y0113835
X00123Y011346
X0011675Y011326
X0012425Y011576
X0013725
X0014375Y011681
Y0117285
X00144Y011846
X0014625Y0119645
X0013825
X0013025Y0119645
X0012225Y0119645
X0011425Y0119645
X0011825Y0120995
X0009875Y0121195
X0008775Y0120985
X00064Y012011
X00064Y0119585
X0005875Y0119585
X0005875Y012011
X0005575Y011876
X0005425Y0118035
X00058875
X00067Y0117285
X0007275Y011651
X000735Y011526
X000615Y011541
Y011476
X00066614Y0114585
X0006625Y0113835
X00061Y011306
X0006625Y0112285
X0007375Y011211
X00073401Y011157
X0008Y011361
X000855
X00091179Y0114385
Y01148921
X000615Y0116235
X000485Y011631
X000375Y0121535
X000375Y0122035
X000325Y0122035
X000325Y0121535
X000205Y012136
X000225Y012481
X0003775Y012456
X0003775Y012506
X0003775Y012756
X0003775Y012806
X0003275Y012806
X0003275Y012756
X0006225Y0127405
Y012678
X0006225Y0128185
Y012881
X00075Y0128785
X0009275Y013006
X00092Y013066
X0008775Y013106
X0008775Y013256
X000595Y0131535
X0009075Y012726
X0007275Y012441
X000685Y0124085
Y0123505
X0007275Y012318
X00112Y0117785
X00111Y011731
X0011975Y0117985
X0012975Y0117335
Y0116885
X0015425Y0119645
X0014225Y0128645
X0013425
X0012625
X00164Y013141
X001688Y0131415
X0016675Y013267
X0016125Y0132535
Y0133085
X00170851Y01021
X00178601Y010165
X0018635Y0102125
X001865Y0100025
X001815
X00168Y0098675
X00167Y009784
X00167Y00968
X0016675Y00963
X0016125Y0096165
Y0096715
X00164Y009504
X001688Y0095045
X0017025Y0093575
X0016225
X0015825Y009389
X0015425Y0093575
X0014625
X0013825Y0093575
X0013025
X00125Y009474
X001235Y009544
X0012325Y0097315
X0011775
X00111Y0097065
X00127Y0098115
X0012475Y009874
Y009929
X001265Y010004
X0010575Y010064
X0008975Y0100715
X0009375Y0099515
X0008235Y0099775
X0008325Y0097815
X0007625
X0006625Y0097835
X00060875Y00977275
X00061Y009706
X000545Y009709
X000595Y0095165
X0008775Y009469
X00092Y009429
X0009275Y009369
X00113Y009399
X0008775Y009619
X00061Y010016
X00062Y0101115
X00072Y0101415
X001505Y0101115
X00143Y009874
X001885Y0097975
Y0096875
X001865Y0094825
X0018625Y0093575
X0017825
X001885Y0133245
Y0134345
X001865Y0136395
X001815
X00178601Y013802
X00170851Y013847
X0018635Y0138495
X001505Y0137485
X00143Y013511
X0012475
Y013566
X001265Y013641
X00127Y0134485
X0012325Y0133685
X0011775
X00111Y0133435
X0008325Y0134185
X0007625
X0006625Y0134205
X00060875Y01340975
X00061Y013343
X000545Y013346
X00061Y013653
X00062Y0137485
X00072Y0137785
X0008975Y0137085
X0009375Y0135885
X0008235Y0136145
X0010575Y013701
X00168Y0135045
X00167Y013421
X00167Y013317
X001995Y0133245
Y0134345
X002015Y0136395
X002065
X002115Y0136535
X0021625Y0136535
X002315Y0136435
X0023285Y013847
X002415Y013846
X0025275Y013637
X002515Y013421
X0024675Y0134385
X00252Y0133585
X0028Y013316
Y013466
X0029975Y0134585
X00306Y0134435
X0032Y0134535
X0032475Y0135135
X0032175Y013586
X00319944Y01371514
X003181Y013802
X0031135Y0138545
X0032585
X003595Y0137185
X003595Y0136635
X003575Y0133985
X003625Y0133985
X0037225Y0133485
X0038325Y013346
X003795Y0133885
X00379Y0134385
X0039025Y0134985
X00404Y013486
X0040375Y0133735
X00428Y013436
X00411Y0136735
X004055Y0136635
X0039275Y013916
X0037175
X003465Y013491
X0033625Y013426
X003195Y013326
X002915Y013701
X00288Y0137385
X0028365Y0137045
X0022Y0135045
Y0134545
X0022Y0134045
X001965Y0136395
X0020185Y013847
X00207Y013811
X0043435Y0138545
X0044225Y0138535
X004421Y013802
X0044985Y0138545
X0045575Y0138535
X00462601Y0138545
X004691
X0048635
X0050125Y013911
X005065
X005125Y013876
X0051675Y0139135
X005196Y013802
X00525Y0138535
X005244Y013678
X0052525Y0134935
X0050075Y013411
X005039Y013678
X0047625Y0135985
X004765Y013496
X0056025Y013361
X005689Y0133505
X0057125Y013426
X00586Y0134485
X0054075Y0138985
X0058935Y0138545
X005971Y013802
X006135Y013771
X00626303Y013803
X0062425Y0138635
X0063225Y013886
X006385Y013861
X0063825Y0136385
X0063275
X0064225Y0134985
X0064225Y013451
X0064925Y013404
Y013559
X006555Y0135985
X00671
X006865
X006855Y0137285
X0067475Y013861
X00599Y0136085
X0060675Y0134485
T03
X00081393Y0000795
X00106821
X0013225
X00157679
X00183107
X00465536Y0000795
X00490964
Y0037165
X00465536
X00233536Y0030575
X00208107
X00182679
X0015725
X00131821
X00106393
X00080964
X00081393Y0037165
X00106821
X0013225
X00157679
X00183107
X00182679Y0066945
X0015725
X00131821
X00106393
X00080964
X00081393Y0073535
X00106821
X0013225
X00157679
X00183107
X00208107Y0066945
X00233536
X00465536Y0073535
X00490964
Y0109905
X00465536
X00233536Y0103315
X00208107
X00182679
X0015725
X00131821
X00106393
X00080964
X00081393Y0109905
X00106821
X0013225
X00157679
X00183107
X00182679Y0139685
X0015725
X00131821
X00106393
X00080964
X00208107
X00233536
T06
X0002625Y0
X00037
X0Y0005742
Y0007017
X00653Y0
X0066375
Y003137
X00653
Y003637
X0066375
X00037Y003637
X0002625
X0002625Y003137
X00037
X0Y0025758
Y0024483
Y0042142
Y0043417
Y0060883
Y0062158
X0002625Y006774
X00037
X00037Y007274
X0002625
X0Y0078542
Y0079817
X00653Y007274
X0066375
Y006774
X00653
Y010411
X0066375
Y010911
X00653
X00037Y010911
X0002625
X0002625Y010411
X00037
X0Y0098458
Y0097183
Y0114842
Y0116117
Y0133483
Y0134758
X0002625Y014048
X00037
X00653Y014048
X0066375
T07
X000245Y0013485
Y0017985
Y0049855
Y0054355
Y0086225
Y0090725
Y0122595
Y0127095
T08
X00265Y-00002
X00565
Y003157
Y003617
X00265
Y003157
Y006794
Y007254
X00565
Y006794
Y010431
Y010891
X00265
Y010431
Y014068
X00565
M30
