G04*
G04 #@! TF.GenerationSoftware,Altium Limited,Altium Designer,19.1.6 (110)*
G04*
G04 Layer_Color=8388736*
%FSLAX44Y44*%
%MOMM*%
G71*
G01*
G75*
%ADD52C,0.3500*%
%ADD65R,7.0000X7.0000*%
%ADD129C,3.0000*%
G04:AMPARAMS|DCode=130|XSize=0.6mm|YSize=0.7mm|CornerRadius=0.1mm|HoleSize=0mm|Usage=FLASHONLY|Rotation=90.000|XOffset=0mm|YOffset=0mm|HoleType=Round|Shape=RoundedRectangle|*
%AMROUNDEDRECTD130*
21,1,0.6000,0.5000,0,0,90.0*
21,1,0.4000,0.7000,0,0,90.0*
1,1,0.2000,0.2500,0.2000*
1,1,0.2000,0.2500,-0.2000*
1,1,0.2000,-0.2500,-0.2000*
1,1,0.2000,-0.2500,0.2000*
%
%ADD130ROUNDEDRECTD130*%
G04:AMPARAMS|DCode=131|XSize=1.1mm|YSize=1mm|CornerRadius=0.1625mm|HoleSize=0mm|Usage=FLASHONLY|Rotation=180.000|XOffset=0mm|YOffset=0mm|HoleType=Round|Shape=RoundedRectangle|*
%AMROUNDEDRECTD131*
21,1,1.1000,0.6750,0,0,180.0*
21,1,0.7750,1.0000,0,0,180.0*
1,1,0.3250,-0.3875,0.3375*
1,1,0.3250,0.3875,0.3375*
1,1,0.3250,0.3875,-0.3375*
1,1,0.3250,-0.3875,-0.3375*
%
%ADD131ROUNDEDRECTD131*%
G04:AMPARAMS|DCode=132|XSize=1.1mm|YSize=1mm|CornerRadius=0.1625mm|HoleSize=0mm|Usage=FLASHONLY|Rotation=270.000|XOffset=0mm|YOffset=0mm|HoleType=Round|Shape=RoundedRectangle|*
%AMROUNDEDRECTD132*
21,1,1.1000,0.6750,0,0,270.0*
21,1,0.7750,1.0000,0,0,270.0*
1,1,0.3250,-0.3375,-0.3875*
1,1,0.3250,-0.3375,0.3875*
1,1,0.3250,0.3375,0.3875*
1,1,0.3250,0.3375,-0.3875*
%
%ADD132ROUNDEDRECTD132*%
G04:AMPARAMS|DCode=133|XSize=0.7mm|YSize=0.7mm|CornerRadius=0.11mm|HoleSize=0mm|Usage=FLASHONLY|Rotation=180.000|XOffset=0mm|YOffset=0mm|HoleType=Round|Shape=RoundedRectangle|*
%AMROUNDEDRECTD133*
21,1,0.7000,0.4800,0,0,180.0*
21,1,0.4800,0.7000,0,0,180.0*
1,1,0.2200,-0.2400,0.2400*
1,1,0.2200,0.2400,0.2400*
1,1,0.2200,0.2400,-0.2400*
1,1,0.2200,-0.2400,-0.2400*
%
%ADD133ROUNDEDRECTD133*%
G04:AMPARAMS|DCode=134|XSize=0.7mm|YSize=0.7mm|CornerRadius=0.11mm|HoleSize=0mm|Usage=FLASHONLY|Rotation=90.000|XOffset=0mm|YOffset=0mm|HoleType=Round|Shape=RoundedRectangle|*
%AMROUNDEDRECTD134*
21,1,0.7000,0.4800,0,0,90.0*
21,1,0.4800,0.7000,0,0,90.0*
1,1,0.2200,0.2400,0.2400*
1,1,0.2200,0.2400,-0.2400*
1,1,0.2200,-0.2400,-0.2400*
1,1,0.2200,-0.2400,0.2400*
%
%ADD134ROUNDEDRECTD134*%
G04:AMPARAMS|DCode=135|XSize=0.6mm|YSize=0.7mm|CornerRadius=0.1mm|HoleSize=0mm|Usage=FLASHONLY|Rotation=0.000|XOffset=0mm|YOffset=0mm|HoleType=Round|Shape=RoundedRectangle|*
%AMROUNDEDRECTD135*
21,1,0.6000,0.5000,0,0,0.0*
21,1,0.4000,0.7000,0,0,0.0*
1,1,0.2000,0.2000,-0.2500*
1,1,0.2000,-0.2000,-0.2500*
1,1,0.2000,-0.2000,0.2500*
1,1,0.2000,0.2000,0.2500*
%
%ADD135ROUNDEDRECTD135*%
%ADD136R,0.4400X0.7400*%
%ADD137R,2.3900X0.7400*%
%ADD138R,1.5000X1.4000*%
%ADD139R,2.1000X1.4000*%
%ADD140C,0.3900*%
G04:AMPARAMS|DCode=141|XSize=0.7mm|YSize=1.1mm|CornerRadius=0.125mm|HoleSize=0mm|Usage=FLASHONLY|Rotation=270.000|XOffset=0mm|YOffset=0mm|HoleType=Round|Shape=RoundedRectangle|*
%AMROUNDEDRECTD141*
21,1,0.7000,0.8500,0,0,270.0*
21,1,0.4500,1.1000,0,0,270.0*
1,1,0.2500,-0.4250,-0.2250*
1,1,0.2500,-0.4250,0.2250*
1,1,0.2500,0.4250,0.2250*
1,1,0.2500,0.4250,-0.2250*
%
%ADD141ROUNDEDRECTD141*%
%ADD142R,0.4000X0.4500*%
%ADD143R,0.3000X1.0000*%
%ADD144R,1.0000X0.3000*%
%ADD145R,5.6500X5.6500*%
%ADD146R,1.1000X0.5000*%
%ADD147R,1.9000X0.8000*%
G04:AMPARAMS|DCode=148|XSize=0.8mm|YSize=0.5mm|CornerRadius=0.1mm|HoleSize=0mm|Usage=FLASHONLY|Rotation=180.000|XOffset=0mm|YOffset=0mm|HoleType=Round|Shape=RoundedRectangle|*
%AMROUNDEDRECTD148*
21,1,0.8000,0.3000,0,0,180.0*
21,1,0.6000,0.5000,0,0,180.0*
1,1,0.2000,-0.3000,0.1500*
1,1,0.2000,0.3000,0.1500*
1,1,0.2000,0.3000,-0.1500*
1,1,0.2000,-0.3000,-0.1500*
%
%ADD148ROUNDEDRECTD148*%
%ADD149R,0.5800X0.3100*%
%ADD150R,0.4800X0.3100*%
%ADD151R,0.7000X0.5500*%
G04:AMPARAMS|DCode=152|XSize=1.4mm|YSize=0.9mm|CornerRadius=0.15mm|HoleSize=0mm|Usage=FLASHONLY|Rotation=270.000|XOffset=0mm|YOffset=0mm|HoleType=Round|Shape=RoundedRectangle|*
%AMROUNDEDRECTD152*
21,1,1.4000,0.6000,0,0,270.0*
21,1,1.1000,0.9000,0,0,270.0*
1,1,0.3000,-0.3000,-0.5500*
1,1,0.3000,-0.3000,0.5500*
1,1,0.3000,0.3000,0.5500*
1,1,0.3000,0.3000,-0.5500*
%
%ADD152ROUNDEDRECTD152*%
G04:AMPARAMS|DCode=153|XSize=1.4mm|YSize=1.1mm|CornerRadius=0.175mm|HoleSize=0mm|Usage=FLASHONLY|Rotation=180.000|XOffset=0mm|YOffset=0mm|HoleType=Round|Shape=RoundedRectangle|*
%AMROUNDEDRECTD153*
21,1,1.4000,0.7500,0,0,180.0*
21,1,1.0500,1.1000,0,0,180.0*
1,1,0.3500,-0.5250,0.3750*
1,1,0.3500,0.5250,0.3750*
1,1,0.3500,0.5250,-0.3750*
1,1,0.3500,-0.5250,-0.3750*
%
%ADD153ROUNDEDRECTD153*%
%ADD154R,1.7500X1.0000*%
%ADD155R,1.7500X0.8600*%
%ADD156R,1.0000X1.7500*%
%ADD157R,0.8600X1.7500*%
%ADD158R,0.4100X0.4000*%
%ADD159R,0.4000X0.4100*%
%ADD160R,4.1000X2.1000*%
%ADD161C,2.0000*%
%ADD162R,2.5000X0.8500*%
%ADD163R,0.4500X0.4000*%
%ADD164R,1.3000X0.8000*%
%ADD165R,0.3500X0.4500*%
%ADD166R,2.6000X1.8000*%
%ADD167R,0.6000X0.8000*%
%ADD168C,3.6000*%
%ADD169O,4.1000X1.7000*%
G04:AMPARAMS|DCode=170|XSize=1.9mm|YSize=1.4mm|CornerRadius=0.375mm|HoleSize=0mm|Usage=FLASHONLY|Rotation=0.000|XOffset=0mm|YOffset=0mm|HoleType=Round|Shape=RoundedRectangle|*
%AMROUNDEDRECTD170*
21,1,1.9000,0.6500,0,0,0.0*
21,1,1.1500,1.4000,0,0,0.0*
1,1,0.7500,0.5750,-0.3250*
1,1,0.7500,-0.5750,-0.3250*
1,1,0.7500,-0.5750,0.3250*
1,1,0.7500,0.5750,0.3250*
%
%ADD170ROUNDEDRECTD170*%
%ADD171O,1.9000X1.4000*%
%ADD172O,4.1000X5.1000*%
%ADD173C,0.6000*%
G36*
X628500Y1317350D02*
X624500D01*
Y1317850D01*
X628500D01*
Y1317350D01*
D02*
G37*
G36*
X624750Y1173350D02*
X623000D01*
Y1177350D01*
X624750Y1177350D01*
Y1173350D01*
D02*
G37*
G36*
X88500Y1121350D02*
X84250D01*
Y1125350D01*
X88500D01*
Y1121350D01*
D02*
G37*
G36*
X628500Y953650D02*
X624500D01*
Y954150D01*
X628500D01*
Y953650D01*
D02*
G37*
G36*
X624750Y809650D02*
X623000D01*
Y813650D01*
X624750Y813650D01*
Y809650D01*
D02*
G37*
G36*
X88500Y757650D02*
X84250D01*
Y761650D01*
X88500D01*
Y757650D01*
D02*
G37*
G36*
X628500Y589950D02*
X624500D01*
Y590450D01*
X628500D01*
Y589950D01*
D02*
G37*
G36*
X624750Y445950D02*
X623000D01*
Y449950D01*
X624750Y449950D01*
Y445950D01*
D02*
G37*
G36*
X88500Y393950D02*
X84250D01*
Y397950D01*
X88500D01*
Y393950D01*
D02*
G37*
G36*
X628500Y226250D02*
X624500D01*
Y226750D01*
X628500D01*
Y226250D01*
D02*
G37*
G36*
X624750Y82250D02*
X623000D01*
Y86250D01*
X624750Y86250D01*
Y82250D01*
D02*
G37*
G36*
X88500Y30250D02*
X84250D01*
Y34250D01*
X88500D01*
Y30250D01*
D02*
G37*
D52*
X490560Y211400D02*
D03*
X493890Y208070D02*
D03*
X497220Y204740D02*
D03*
X500550Y201410D02*
D03*
X503880Y198080D02*
D03*
X507210Y194750D02*
D03*
X503880Y191420D02*
D03*
X500550Y194750D02*
D03*
X493890Y201410D02*
D03*
X497220Y198080D02*
D03*
X487230Y208070D02*
D03*
X490560Y204740D02*
D03*
X487230Y201410D02*
D03*
X483900Y204740D02*
D03*
X493890Y194750D02*
D03*
X490560Y198080D02*
D03*
X497220Y191420D02*
D03*
X500550Y188090D02*
D03*
X483900Y198080D02*
D03*
X480570Y201410D02*
D03*
X487230Y194750D02*
D03*
X497220Y184760D02*
D03*
X493890Y188090D02*
D03*
X473910Y208070D02*
D03*
X477240Y204740D02*
D03*
Y211400D02*
D03*
X480570Y208070D02*
D03*
X503880Y178100D02*
D03*
X500550Y181430D02*
D03*
X507210D02*
D03*
X503880Y184760D02*
D03*
X497220Y178100D02*
D03*
X500550Y174770D02*
D03*
X490560Y184760D02*
D03*
X493890Y181430D02*
D03*
X477240Y198080D02*
D03*
X480570Y194750D02*
D03*
X470580Y204740D02*
D03*
X473910Y201410D02*
D03*
X470580Y198080D02*
D03*
X467250Y201410D02*
D03*
X473910Y194750D02*
D03*
X467250D02*
D03*
X463920Y198080D02*
D03*
X460590Y194750D02*
D03*
X507210Y168110D02*
D03*
X503880Y171440D02*
D03*
X500550Y168110D02*
D03*
X503880Y164780D02*
D03*
X490560Y178100D02*
D03*
X497220Y171440D02*
D03*
X493890Y174770D02*
D03*
X503880Y158120D02*
D03*
X507210Y154790D02*
D03*
X493890Y168110D02*
D03*
X490560Y171440D02*
D03*
X500550Y161450D02*
D03*
X497220Y164780D02*
D03*
X490560D02*
D03*
X500550Y154790D02*
D03*
X497220Y158120D02*
D03*
Y151460D02*
D03*
X500550Y148130D02*
D03*
X490560Y158120D02*
D03*
X493890Y154790D02*
D03*
X507210Y141470D02*
D03*
X503880Y144800D02*
D03*
X497220D02*
D03*
X500550Y141470D02*
D03*
X490560Y151460D02*
D03*
X493890Y148130D02*
D03*
X503880Y138140D02*
D03*
X497220D02*
D03*
X500550Y134810D02*
D03*
X507210Y128150D02*
D03*
X503880Y131480D02*
D03*
X497220D02*
D03*
X500550Y128150D02*
D03*
X490560Y138140D02*
D03*
X493890Y134810D02*
D03*
X507210Y121490D02*
D03*
X503880Y124820D02*
D03*
X500550Y121490D02*
D03*
X490560Y131480D02*
D03*
X493890Y128150D02*
D03*
X500550Y114830D02*
D03*
X490560Y124820D02*
D03*
X493890Y121490D02*
D03*
X507210Y108170D02*
D03*
X503880Y111500D02*
D03*
X497220D02*
D03*
X500550Y108170D02*
D03*
X493890Y114830D02*
D03*
X503880Y104840D02*
D03*
X497220D02*
D03*
X490560Y111500D02*
D03*
X493890Y108170D02*
D03*
X500550Y208070D02*
D03*
X447270Y194750D02*
D03*
X440610D02*
D03*
X443940Y198080D02*
D03*
X447270Y201410D02*
D03*
X450600Y204740D02*
D03*
X453930Y208070D02*
D03*
X437280Y198080D02*
D03*
X440610Y201410D02*
D03*
X437280Y204740D02*
D03*
X433950Y201410D02*
D03*
Y208070D02*
D03*
X430620Y204740D02*
D03*
X443940D02*
D03*
X427290Y208070D02*
D03*
X423960Y211400D02*
D03*
X420630Y208070D02*
D03*
X423960Y204740D02*
D03*
X427290Y194750D02*
D03*
X423960Y198080D02*
D03*
X420630Y201410D02*
D03*
X413970Y208070D02*
D03*
X417300Y204740D02*
D03*
X410640Y211400D02*
D03*
X403980D02*
D03*
X410640Y204740D02*
D03*
X407310Y208070D02*
D03*
X413970Y201410D02*
D03*
X417300Y198080D02*
D03*
X420630Y194750D02*
D03*
X407310Y201410D02*
D03*
X410640Y198080D02*
D03*
X413970Y194750D02*
D03*
X397320Y204740D02*
D03*
X403980Y198080D02*
D03*
X400650Y201410D02*
D03*
X407310Y194750D02*
D03*
X410640Y191420D02*
D03*
X413970Y188090D02*
D03*
X397320Y198080D02*
D03*
X403980Y191420D02*
D03*
X400650Y194750D02*
D03*
X407310Y188090D02*
D03*
X410640Y184760D02*
D03*
X413970Y181430D02*
D03*
X403980Y184760D02*
D03*
X400650Y188090D02*
D03*
X407310Y181430D02*
D03*
X410640Y178100D02*
D03*
X413970Y174770D02*
D03*
X397320Y184760D02*
D03*
X403980Y178100D02*
D03*
X400650Y181430D02*
D03*
X407310Y174770D02*
D03*
X410640Y171440D02*
D03*
X413970Y168110D02*
D03*
X403980Y171440D02*
D03*
X400650Y174770D02*
D03*
X407310Y168110D02*
D03*
X410640Y164780D02*
D03*
X413970Y161450D02*
D03*
X397320Y171440D02*
D03*
X403980Y164780D02*
D03*
X400650Y168110D02*
D03*
X407310Y161450D02*
D03*
X410640Y158120D02*
D03*
X413970Y154790D02*
D03*
X403980Y158120D02*
D03*
X400650Y161450D02*
D03*
X407310Y154790D02*
D03*
X410640Y151460D02*
D03*
X413970Y148130D02*
D03*
X397320Y158120D02*
D03*
X403980Y151460D02*
D03*
X400650Y154790D02*
D03*
X407310Y148130D02*
D03*
X410640Y144800D02*
D03*
X403980Y144800D02*
D03*
X400650Y148130D02*
D03*
X407310Y141470D02*
D03*
X410640Y138140D02*
D03*
X397320Y144800D02*
D03*
X403980Y138140D02*
D03*
X400650Y141470D02*
D03*
X407310Y134810D02*
D03*
X410640Y131480D02*
D03*
X400650Y134810D02*
D03*
X407310Y128150D02*
D03*
X403980Y131480D02*
D03*
X410640Y124820D02*
D03*
X413970Y121490D02*
D03*
X417300Y118160D02*
D03*
X397320Y131480D02*
D03*
X403980Y124820D02*
D03*
X400650Y128150D02*
D03*
X407310Y121489D02*
D03*
X410640Y118160D02*
D03*
X413970Y114830D02*
D03*
X420630Y108169D02*
D03*
X417300Y111500D02*
D03*
X423960D02*
D03*
X420630Y114830D02*
D03*
X413970Y108169D02*
D03*
X410640Y111500D02*
D03*
X407310Y114830D02*
D03*
X403980Y118160D02*
D03*
X407310Y108169D02*
D03*
X403980Y111500D02*
D03*
X423960Y118160D02*
D03*
X430620D02*
D03*
X437280D02*
D03*
X443940D02*
D03*
X450600D02*
D03*
X457260D02*
D03*
X463920D02*
D03*
X470580D02*
D03*
X477240D02*
D03*
X483900D02*
D03*
X490560D02*
D03*
X497220D02*
D03*
X503880D02*
D03*
X427290Y114830D02*
D03*
X433950D02*
D03*
X440610D02*
D03*
X447270D02*
D03*
X453930D02*
D03*
X460590D02*
D03*
X467250D02*
D03*
X480570D02*
D03*
X473910D02*
D03*
X483900Y111500D02*
D03*
X477240D02*
D03*
X470580D02*
D03*
X463920D02*
D03*
X457260D02*
D03*
X450600D02*
D03*
X443940D02*
D03*
X437280D02*
D03*
X430620D02*
D03*
X480570Y108169D02*
D03*
X473910D02*
D03*
X467250D02*
D03*
X460590D02*
D03*
X453930D02*
D03*
X447270D02*
D03*
X440610D02*
D03*
X433950D02*
D03*
X427290D02*
D03*
X487230D02*
D03*
X493890Y101510D02*
D03*
X483900Y104839D02*
D03*
X437280D02*
D03*
X443940D02*
D03*
X450600D02*
D03*
X457260D02*
D03*
X463920D02*
D03*
X470580D02*
D03*
X477240D02*
D03*
X487230Y101510D02*
D03*
X480570D02*
D03*
X467250D02*
D03*
X453930D02*
D03*
X440610D02*
D03*
X490560Y575100D02*
D03*
X493890Y571770D02*
D03*
X497220Y568440D02*
D03*
X500550Y565110D02*
D03*
X503880Y561780D02*
D03*
X507210Y558450D02*
D03*
X503880Y555120D02*
D03*
X500550Y558450D02*
D03*
X493890Y565110D02*
D03*
X497220Y561780D02*
D03*
X487230Y571770D02*
D03*
X490560Y568440D02*
D03*
X487230Y565110D02*
D03*
X483900Y568440D02*
D03*
X493890Y558450D02*
D03*
X490560Y561780D02*
D03*
X497220Y555120D02*
D03*
X500550Y551790D02*
D03*
X483900Y561780D02*
D03*
X480570Y565110D02*
D03*
X487230Y558450D02*
D03*
X497220Y548460D02*
D03*
X493890Y551790D02*
D03*
X473910Y571770D02*
D03*
X477240Y568440D02*
D03*
Y575100D02*
D03*
X480570Y571770D02*
D03*
X503880Y541800D02*
D03*
X500550Y545130D02*
D03*
X507210D02*
D03*
X503880Y548460D02*
D03*
X497220Y541800D02*
D03*
X500550Y538470D02*
D03*
X490560Y548460D02*
D03*
X493890Y545130D02*
D03*
X477240Y561780D02*
D03*
X480570Y558450D02*
D03*
X470580Y568440D02*
D03*
X473910Y565110D02*
D03*
X470580Y561780D02*
D03*
X467250Y565110D02*
D03*
X473910Y558450D02*
D03*
X467250D02*
D03*
X463920Y561780D02*
D03*
X460590Y558450D02*
D03*
X507210Y531810D02*
D03*
X503880Y535140D02*
D03*
X500550Y531810D02*
D03*
X503880Y528480D02*
D03*
X490560Y541800D02*
D03*
X497220Y535140D02*
D03*
X493890Y538470D02*
D03*
X503880Y521820D02*
D03*
X507210Y518490D02*
D03*
X493890Y531810D02*
D03*
X490560Y535140D02*
D03*
X500550Y525150D02*
D03*
X497220Y528480D02*
D03*
X490560D02*
D03*
X500550Y518490D02*
D03*
X497220Y521820D02*
D03*
Y515160D02*
D03*
X500550Y511830D02*
D03*
X490560Y521820D02*
D03*
X493890Y518490D02*
D03*
X507210Y505170D02*
D03*
X503880Y508500D02*
D03*
X497220D02*
D03*
X500550Y505170D02*
D03*
X490560Y515160D02*
D03*
X493890Y511830D02*
D03*
X503880Y501840D02*
D03*
X497220D02*
D03*
X500550Y498510D02*
D03*
X507210Y491850D02*
D03*
X503880Y495180D02*
D03*
X497220D02*
D03*
X500550Y491850D02*
D03*
X490560Y501840D02*
D03*
X493890Y498510D02*
D03*
X507210Y485190D02*
D03*
X503880Y488520D02*
D03*
X500550Y485190D02*
D03*
X490560Y495180D02*
D03*
X493890Y491850D02*
D03*
X500550Y478530D02*
D03*
X490560Y488520D02*
D03*
X493890Y485190D02*
D03*
X507210Y471870D02*
D03*
X503880Y475200D02*
D03*
X497220D02*
D03*
X500550Y471870D02*
D03*
X493890Y478530D02*
D03*
X503880Y468540D02*
D03*
X497220D02*
D03*
X490560Y475200D02*
D03*
X493890Y471870D02*
D03*
X500550Y571770D02*
D03*
X447270Y558450D02*
D03*
X440610D02*
D03*
X443940Y561780D02*
D03*
X447270Y565110D02*
D03*
X450600Y568440D02*
D03*
X453930Y571770D02*
D03*
X437280Y561780D02*
D03*
X440610Y565110D02*
D03*
X437280Y568440D02*
D03*
X433950Y565110D02*
D03*
Y571770D02*
D03*
X430620Y568440D02*
D03*
X443940D02*
D03*
X427290Y571770D02*
D03*
X423960Y575100D02*
D03*
X420630Y571770D02*
D03*
X423960Y568440D02*
D03*
X427290Y558450D02*
D03*
X423960Y561780D02*
D03*
X420630Y565110D02*
D03*
X413970Y571770D02*
D03*
X417300Y568440D02*
D03*
X410640Y575100D02*
D03*
X403980D02*
D03*
X410640Y568440D02*
D03*
X407310Y571770D02*
D03*
X413970Y565110D02*
D03*
X417300Y561780D02*
D03*
X420630Y558450D02*
D03*
X407310Y565110D02*
D03*
X410640Y561780D02*
D03*
X413970Y558450D02*
D03*
X397320Y568440D02*
D03*
X403980Y561780D02*
D03*
X400650Y565110D02*
D03*
X407310Y558450D02*
D03*
X410640Y555120D02*
D03*
X413970Y551790D02*
D03*
X397320Y561780D02*
D03*
X403980Y555120D02*
D03*
X400650Y558450D02*
D03*
X407310Y551790D02*
D03*
X410640Y548460D02*
D03*
X413970Y545130D02*
D03*
X403980Y548460D02*
D03*
X400650Y551790D02*
D03*
X407310Y545130D02*
D03*
X410640Y541800D02*
D03*
X413970Y538470D02*
D03*
X397320Y548460D02*
D03*
X403980Y541800D02*
D03*
X400650Y545130D02*
D03*
X407310Y538470D02*
D03*
X410640Y535140D02*
D03*
X413970Y531810D02*
D03*
X403980Y535140D02*
D03*
X400650Y538470D02*
D03*
X407310Y531810D02*
D03*
X410640Y528480D02*
D03*
X413970Y525150D02*
D03*
X397320Y535140D02*
D03*
X403980Y528480D02*
D03*
X400650Y531810D02*
D03*
X407310Y525150D02*
D03*
X410640Y521820D02*
D03*
X413970Y518490D02*
D03*
X403980Y521820D02*
D03*
X400650Y525150D02*
D03*
X407310Y518490D02*
D03*
X410640Y515160D02*
D03*
X413970Y511830D02*
D03*
X397320Y521820D02*
D03*
X403980Y515160D02*
D03*
X400650Y518490D02*
D03*
X407310Y511830D02*
D03*
X410640Y508500D02*
D03*
X403980Y508500D02*
D03*
X400650Y511830D02*
D03*
X407310Y505170D02*
D03*
X410640Y501840D02*
D03*
X397320Y508500D02*
D03*
X403980Y501840D02*
D03*
X400650Y505170D02*
D03*
X407310Y498510D02*
D03*
X410640Y495180D02*
D03*
X400650Y498510D02*
D03*
X407310Y491850D02*
D03*
X403980Y495180D02*
D03*
X410640Y488520D02*
D03*
X413970Y485190D02*
D03*
X417300Y481860D02*
D03*
X397320Y495180D02*
D03*
X403980Y488520D02*
D03*
X400650Y491850D02*
D03*
X407310Y485190D02*
D03*
X410640Y481860D02*
D03*
X413970Y478530D02*
D03*
X420630Y471870D02*
D03*
X417300Y475200D02*
D03*
X423960D02*
D03*
X420630Y478530D02*
D03*
X413970Y471870D02*
D03*
X410640Y475200D02*
D03*
X407310Y478530D02*
D03*
X403980Y481860D02*
D03*
X407310Y471870D02*
D03*
X403980Y475200D02*
D03*
X423960Y481860D02*
D03*
X430620D02*
D03*
X437280D02*
D03*
X443940D02*
D03*
X450600D02*
D03*
X457260D02*
D03*
X463920D02*
D03*
X470580D02*
D03*
X477240D02*
D03*
X483900D02*
D03*
X490560D02*
D03*
X497220D02*
D03*
X503880D02*
D03*
X427290Y478530D02*
D03*
X433950D02*
D03*
X440610D02*
D03*
X447270D02*
D03*
X453930D02*
D03*
X460590D02*
D03*
X467250D02*
D03*
X480570D02*
D03*
X473910D02*
D03*
X483900Y475200D02*
D03*
X477240D02*
D03*
X470580D02*
D03*
X463920D02*
D03*
X457260D02*
D03*
X450600D02*
D03*
X443940D02*
D03*
X437280D02*
D03*
X430620D02*
D03*
X480570Y471870D02*
D03*
X473910D02*
D03*
X467250D02*
D03*
X460590D02*
D03*
X453930D02*
D03*
X447270D02*
D03*
X440610D02*
D03*
X433950D02*
D03*
X427290D02*
D03*
X487230D02*
D03*
X493890Y465210D02*
D03*
X483900Y468540D02*
D03*
X437280D02*
D03*
X443940D02*
D03*
X450600D02*
D03*
X457260D02*
D03*
X463920D02*
D03*
X470580D02*
D03*
X477240D02*
D03*
X487230Y465210D02*
D03*
X480570D02*
D03*
X467250D02*
D03*
X453930D02*
D03*
X440610D02*
D03*
X490560Y938800D02*
D03*
X493890Y935470D02*
D03*
X497220Y932140D02*
D03*
X500550Y928810D02*
D03*
X503880Y925480D02*
D03*
X507210Y922150D02*
D03*
X503880Y918820D02*
D03*
X500550Y922150D02*
D03*
X493890Y928810D02*
D03*
X497220Y925480D02*
D03*
X487230Y935470D02*
D03*
X490560Y932140D02*
D03*
X487230Y928810D02*
D03*
X483900Y932140D02*
D03*
X493890Y922150D02*
D03*
X490560Y925480D02*
D03*
X497220Y918820D02*
D03*
X500550Y915490D02*
D03*
X483900Y925480D02*
D03*
X480570Y928810D02*
D03*
X487230Y922150D02*
D03*
X497220Y912160D02*
D03*
X493890Y915490D02*
D03*
X473910Y935470D02*
D03*
X477240Y932140D02*
D03*
Y938800D02*
D03*
X480570Y935470D02*
D03*
X503880Y905500D02*
D03*
X500550Y908830D02*
D03*
X507210D02*
D03*
X503880Y912160D02*
D03*
X497220Y905500D02*
D03*
X500550Y902170D02*
D03*
X490560Y912160D02*
D03*
X493890Y908830D02*
D03*
X477240Y925480D02*
D03*
X480570Y922150D02*
D03*
X470580Y932140D02*
D03*
X473910Y928810D02*
D03*
X470580Y925480D02*
D03*
X467250Y928810D02*
D03*
X473910Y922150D02*
D03*
X467250D02*
D03*
X463920Y925480D02*
D03*
X460590Y922150D02*
D03*
X507210Y895510D02*
D03*
X503880Y898840D02*
D03*
X500550Y895510D02*
D03*
X503880Y892180D02*
D03*
X490560Y905500D02*
D03*
X497220Y898840D02*
D03*
X493890Y902170D02*
D03*
X503880Y885520D02*
D03*
X507210Y882190D02*
D03*
X493890Y895510D02*
D03*
X490560Y898840D02*
D03*
X500550Y888850D02*
D03*
X497220Y892180D02*
D03*
X490560D02*
D03*
X500550Y882190D02*
D03*
X497220Y885520D02*
D03*
Y878860D02*
D03*
X500550Y875530D02*
D03*
X490560Y885520D02*
D03*
X493890Y882190D02*
D03*
X507210Y868870D02*
D03*
X503880Y872200D02*
D03*
X497220D02*
D03*
X500550Y868870D02*
D03*
X490560Y878860D02*
D03*
X493890Y875530D02*
D03*
X503880Y865540D02*
D03*
X497220D02*
D03*
X500550Y862210D02*
D03*
X507210Y855550D02*
D03*
X503880Y858880D02*
D03*
X497220D02*
D03*
X500550Y855550D02*
D03*
X490560Y865540D02*
D03*
X493890Y862210D02*
D03*
X507210Y848890D02*
D03*
X503880Y852220D02*
D03*
X500550Y848890D02*
D03*
X490560Y858880D02*
D03*
X493890Y855550D02*
D03*
X500550Y842230D02*
D03*
X490560Y852220D02*
D03*
X493890Y848890D02*
D03*
X507210Y835570D02*
D03*
X503880Y838900D02*
D03*
X497220D02*
D03*
X500550Y835570D02*
D03*
X493890Y842230D02*
D03*
X503880Y832240D02*
D03*
X497220D02*
D03*
X490560Y838900D02*
D03*
X493890Y835570D02*
D03*
X500550Y935470D02*
D03*
X447270Y922150D02*
D03*
X440610D02*
D03*
X443940Y925480D02*
D03*
X447270Y928810D02*
D03*
X450600Y932140D02*
D03*
X453930Y935470D02*
D03*
X437280Y925480D02*
D03*
X440610Y928810D02*
D03*
X437280Y932140D02*
D03*
X433950Y928810D02*
D03*
Y935470D02*
D03*
X430620Y932140D02*
D03*
X443940D02*
D03*
X427290Y935470D02*
D03*
X423960Y938800D02*
D03*
X420630Y935470D02*
D03*
X423960Y932140D02*
D03*
X427290Y922150D02*
D03*
X423960Y925480D02*
D03*
X420630Y928810D02*
D03*
X413970Y935470D02*
D03*
X417300Y932140D02*
D03*
X410640Y938800D02*
D03*
X403980D02*
D03*
X410640Y932140D02*
D03*
X407310Y935470D02*
D03*
X413970Y928810D02*
D03*
X417300Y925480D02*
D03*
X420630Y922150D02*
D03*
X407310Y928810D02*
D03*
X410640Y925480D02*
D03*
X413970Y922150D02*
D03*
X397320Y932140D02*
D03*
X403980Y925480D02*
D03*
X400650Y928810D02*
D03*
X407310Y922150D02*
D03*
X410640Y918820D02*
D03*
X413970Y915490D02*
D03*
X397320Y925480D02*
D03*
X403980Y918820D02*
D03*
X400650Y922150D02*
D03*
X407310Y915490D02*
D03*
X410640Y912160D02*
D03*
X413970Y908830D02*
D03*
X403980Y912160D02*
D03*
X400650Y915490D02*
D03*
X407310Y908830D02*
D03*
X410640Y905500D02*
D03*
X413970Y902170D02*
D03*
X397320Y912160D02*
D03*
X403980Y905500D02*
D03*
X400650Y908830D02*
D03*
X407310Y902170D02*
D03*
X410640Y898840D02*
D03*
X413970Y895510D02*
D03*
X403980Y898840D02*
D03*
X400650Y902170D02*
D03*
X407310Y895510D02*
D03*
X410640Y892180D02*
D03*
X413970Y888850D02*
D03*
X397320Y898840D02*
D03*
X403980Y892180D02*
D03*
X400650Y895510D02*
D03*
X407310Y888850D02*
D03*
X410640Y885520D02*
D03*
X413970Y882190D02*
D03*
X403980Y885520D02*
D03*
X400650Y888850D02*
D03*
X407310Y882190D02*
D03*
X410640Y878860D02*
D03*
X413970Y875530D02*
D03*
X397320Y885520D02*
D03*
X403980Y878860D02*
D03*
X400650Y882190D02*
D03*
X407310Y875530D02*
D03*
X410640Y872200D02*
D03*
X403980Y872200D02*
D03*
X400650Y875530D02*
D03*
X407310Y868870D02*
D03*
X410640Y865540D02*
D03*
X397320Y872200D02*
D03*
X403980Y865540D02*
D03*
X400650Y868870D02*
D03*
X407310Y862210D02*
D03*
X410640Y858880D02*
D03*
X400650Y862210D02*
D03*
X407310Y855550D02*
D03*
X403980Y858880D02*
D03*
X410640Y852220D02*
D03*
X413970Y848890D02*
D03*
X417300Y845560D02*
D03*
X397320Y858880D02*
D03*
X403980Y852220D02*
D03*
X400650Y855550D02*
D03*
X407310Y848890D02*
D03*
X410640Y845560D02*
D03*
X413970Y842230D02*
D03*
X420630Y835570D02*
D03*
X417300Y838900D02*
D03*
X423960D02*
D03*
X420630Y842230D02*
D03*
X413970Y835570D02*
D03*
X410640Y838900D02*
D03*
X407310Y842230D02*
D03*
X403980Y845560D02*
D03*
X407310Y835570D02*
D03*
X403980Y838900D02*
D03*
X423960Y845560D02*
D03*
X430620D02*
D03*
X437280D02*
D03*
X443940D02*
D03*
X450600D02*
D03*
X457260D02*
D03*
X463920D02*
D03*
X470580D02*
D03*
X477240D02*
D03*
X483900D02*
D03*
X490560D02*
D03*
X497220D02*
D03*
X503880D02*
D03*
X427290Y842230D02*
D03*
X433950D02*
D03*
X440610D02*
D03*
X447270D02*
D03*
X453930D02*
D03*
X460590D02*
D03*
X467250D02*
D03*
X480570D02*
D03*
X473910D02*
D03*
X483900Y838900D02*
D03*
X477240D02*
D03*
X470580D02*
D03*
X463920D02*
D03*
X457260D02*
D03*
X450600D02*
D03*
X443940D02*
D03*
X437280D02*
D03*
X430620D02*
D03*
X480570Y835570D02*
D03*
X473910D02*
D03*
X467250D02*
D03*
X460590D02*
D03*
X453930D02*
D03*
X447270D02*
D03*
X440610D02*
D03*
X433950D02*
D03*
X427290D02*
D03*
X487230D02*
D03*
X493890Y828910D02*
D03*
X483900Y832240D02*
D03*
X437280D02*
D03*
X443940D02*
D03*
X450600D02*
D03*
X457260D02*
D03*
X463920D02*
D03*
X470580D02*
D03*
X477240D02*
D03*
X487230Y828910D02*
D03*
X480570D02*
D03*
X467250D02*
D03*
X453930D02*
D03*
X440610D02*
D03*
X490560Y1302500D02*
D03*
X493890Y1299170D02*
D03*
X497220Y1295840D02*
D03*
X500550Y1292510D02*
D03*
X503880Y1289180D02*
D03*
X507210Y1285850D02*
D03*
X503880Y1282520D02*
D03*
X500550Y1285850D02*
D03*
X493890Y1292510D02*
D03*
X497220Y1289180D02*
D03*
X487230Y1299170D02*
D03*
X490560Y1295840D02*
D03*
X487230Y1292510D02*
D03*
X483900Y1295840D02*
D03*
X493890Y1285850D02*
D03*
X490560Y1289180D02*
D03*
X497220Y1282520D02*
D03*
X500550Y1279190D02*
D03*
X483900Y1289180D02*
D03*
X480570Y1292510D02*
D03*
X487230Y1285850D02*
D03*
X497220Y1275860D02*
D03*
X493890Y1279190D02*
D03*
X473910Y1299170D02*
D03*
X477240Y1295840D02*
D03*
Y1302500D02*
D03*
X480570Y1299170D02*
D03*
X503880Y1269200D02*
D03*
X500550Y1272530D02*
D03*
X507210D02*
D03*
X503880Y1275860D02*
D03*
X497220Y1269200D02*
D03*
X500550Y1265870D02*
D03*
X490560Y1275860D02*
D03*
X493890Y1272530D02*
D03*
X477240Y1289180D02*
D03*
X480570Y1285850D02*
D03*
X470580Y1295840D02*
D03*
X473910Y1292510D02*
D03*
X470580Y1289180D02*
D03*
X467250Y1292510D02*
D03*
X473910Y1285850D02*
D03*
X467250D02*
D03*
X463920Y1289180D02*
D03*
X460590Y1285850D02*
D03*
X507210Y1259210D02*
D03*
X503880Y1262540D02*
D03*
X500550Y1259210D02*
D03*
X503880Y1255880D02*
D03*
X490560Y1269200D02*
D03*
X497220Y1262540D02*
D03*
X493890Y1265870D02*
D03*
X503880Y1249220D02*
D03*
X507210Y1245890D02*
D03*
X493890Y1259210D02*
D03*
X490560Y1262540D02*
D03*
X500550Y1252550D02*
D03*
X497220Y1255880D02*
D03*
X490560D02*
D03*
X500550Y1245890D02*
D03*
X497220Y1249220D02*
D03*
Y1242560D02*
D03*
X500550Y1239230D02*
D03*
X490560Y1249220D02*
D03*
X493890Y1245890D02*
D03*
X507210Y1232570D02*
D03*
X503880Y1235900D02*
D03*
X497220D02*
D03*
X500550Y1232570D02*
D03*
X490560Y1242560D02*
D03*
X493890Y1239230D02*
D03*
X503880Y1229240D02*
D03*
X497220D02*
D03*
X500550Y1225910D02*
D03*
X507210Y1219250D02*
D03*
X503880Y1222580D02*
D03*
X497220D02*
D03*
X500550Y1219250D02*
D03*
X490560Y1229240D02*
D03*
X493890Y1225910D02*
D03*
X507210Y1212590D02*
D03*
X503880Y1215920D02*
D03*
X500550Y1212590D02*
D03*
X490560Y1222580D02*
D03*
X493890Y1219250D02*
D03*
X500550Y1205930D02*
D03*
X490560Y1215920D02*
D03*
X493890Y1212590D02*
D03*
X507210Y1199270D02*
D03*
X503880Y1202600D02*
D03*
X497220D02*
D03*
X500550Y1199270D02*
D03*
X493890Y1205930D02*
D03*
X503880Y1195940D02*
D03*
X497220D02*
D03*
X490560Y1202600D02*
D03*
X493890Y1199270D02*
D03*
X500550Y1299170D02*
D03*
X447270Y1285850D02*
D03*
X440610D02*
D03*
X443940Y1289180D02*
D03*
X447270Y1292510D02*
D03*
X450600Y1295840D02*
D03*
X453930Y1299170D02*
D03*
X437280Y1289180D02*
D03*
X440610Y1292510D02*
D03*
X437280Y1295840D02*
D03*
X433950Y1292510D02*
D03*
Y1299170D02*
D03*
X430620Y1295840D02*
D03*
X443940D02*
D03*
X427290Y1299170D02*
D03*
X423960Y1302500D02*
D03*
X420630Y1299170D02*
D03*
X423960Y1295840D02*
D03*
X427290Y1285850D02*
D03*
X423960Y1289180D02*
D03*
X420630Y1292510D02*
D03*
X413970Y1299170D02*
D03*
X417300Y1295840D02*
D03*
X410640Y1302500D02*
D03*
X403980D02*
D03*
X410640Y1295840D02*
D03*
X407310Y1299170D02*
D03*
X413970Y1292510D02*
D03*
X417300Y1289180D02*
D03*
X420630Y1285850D02*
D03*
X407310Y1292510D02*
D03*
X410640Y1289180D02*
D03*
X413970Y1285850D02*
D03*
X397320Y1295840D02*
D03*
X403980Y1289180D02*
D03*
X400650Y1292510D02*
D03*
X407310Y1285850D02*
D03*
X410640Y1282520D02*
D03*
X413970Y1279190D02*
D03*
X397320Y1289180D02*
D03*
X403980Y1282520D02*
D03*
X400650Y1285850D02*
D03*
X407310Y1279190D02*
D03*
X410640Y1275860D02*
D03*
X413970Y1272530D02*
D03*
X403980Y1275860D02*
D03*
X400650Y1279190D02*
D03*
X407310Y1272530D02*
D03*
X410640Y1269200D02*
D03*
X413970Y1265870D02*
D03*
X397320Y1275860D02*
D03*
X403980Y1269200D02*
D03*
X400650Y1272530D02*
D03*
X407310Y1265870D02*
D03*
X410640Y1262540D02*
D03*
X413970Y1259210D02*
D03*
X403980Y1262540D02*
D03*
X400650Y1265870D02*
D03*
X407310Y1259210D02*
D03*
X410640Y1255880D02*
D03*
X413970Y1252550D02*
D03*
X397320Y1262540D02*
D03*
X403980Y1255880D02*
D03*
X400650Y1259210D02*
D03*
X407310Y1252550D02*
D03*
X410640Y1249220D02*
D03*
X413970Y1245890D02*
D03*
X403980Y1249220D02*
D03*
X400650Y1252550D02*
D03*
X407310Y1245890D02*
D03*
X410640Y1242560D02*
D03*
X413970Y1239230D02*
D03*
X397320Y1249220D02*
D03*
X403980Y1242560D02*
D03*
X400650Y1245890D02*
D03*
X407310Y1239230D02*
D03*
X410640Y1235900D02*
D03*
X403980Y1235900D02*
D03*
X400650Y1239230D02*
D03*
X407310Y1232570D02*
D03*
X410640Y1229240D02*
D03*
X397320Y1235900D02*
D03*
X403980Y1229240D02*
D03*
X400650Y1232570D02*
D03*
X407310Y1225910D02*
D03*
X410640Y1222580D02*
D03*
X400650Y1225910D02*
D03*
X407310Y1219250D02*
D03*
X403980Y1222580D02*
D03*
X410640Y1215920D02*
D03*
X413970Y1212590D02*
D03*
X417300Y1209260D02*
D03*
X397320Y1222580D02*
D03*
X403980Y1215920D02*
D03*
X400650Y1219250D02*
D03*
X407310Y1212590D02*
D03*
X410640Y1209260D02*
D03*
X413970Y1205930D02*
D03*
X420630Y1199270D02*
D03*
X417300Y1202600D02*
D03*
X423960D02*
D03*
X420630Y1205930D02*
D03*
X413970Y1199270D02*
D03*
X410640Y1202600D02*
D03*
X407310Y1205930D02*
D03*
X403980Y1209260D02*
D03*
X407310Y1199270D02*
D03*
X403980Y1202600D02*
D03*
X423960Y1209260D02*
D03*
X430620D02*
D03*
X437280D02*
D03*
X443940D02*
D03*
X450600D02*
D03*
X457260D02*
D03*
X463920D02*
D03*
X470580D02*
D03*
X477240D02*
D03*
X483900D02*
D03*
X490560D02*
D03*
X497220D02*
D03*
X503880D02*
D03*
X427290Y1205930D02*
D03*
X433950D02*
D03*
X440610D02*
D03*
X447270D02*
D03*
X453930D02*
D03*
X460590D02*
D03*
X467250D02*
D03*
X480570D02*
D03*
X473910D02*
D03*
X483900Y1202600D02*
D03*
X477240D02*
D03*
X470580D02*
D03*
X463920D02*
D03*
X457260D02*
D03*
X450600D02*
D03*
X443940D02*
D03*
X437280D02*
D03*
X430620D02*
D03*
X480570Y1199270D02*
D03*
X473910D02*
D03*
X467250D02*
D03*
X460590D02*
D03*
X453930D02*
D03*
X447270D02*
D03*
X440610D02*
D03*
X433950D02*
D03*
X427290D02*
D03*
X487230D02*
D03*
X493890Y1192610D02*
D03*
X483900Y1195940D02*
D03*
X437280D02*
D03*
X443940D02*
D03*
X450600D02*
D03*
X457260D02*
D03*
X463920D02*
D03*
X470580D02*
D03*
X477240D02*
D03*
X487230Y1192610D02*
D03*
X480570D02*
D03*
X467250D02*
D03*
X453930D02*
D03*
X440610D02*
D03*
D65*
X452160Y156410D02*
D03*
Y520110D02*
D03*
Y883810D02*
D03*
Y1247510D02*
D03*
D129*
X71999Y1482800D02*
D03*
X617999D02*
D03*
X618000Y-80000D02*
D03*
X72000D02*
D03*
D130*
X137500Y43250D02*
D03*
X127500D02*
D03*
X269250Y38000D02*
D03*
X259250D02*
D03*
X229500Y220750D02*
D03*
X219500D02*
D03*
X96500Y232250D02*
D03*
X106500D02*
D03*
Y242250D02*
D03*
X96500D02*
D03*
X149000Y266000D02*
D03*
X159000D02*
D03*
X149000Y256000D02*
D03*
X159000D02*
D03*
X177000Y229000D02*
D03*
X167000D02*
D03*
X626250Y92500D02*
D03*
X616250D02*
D03*
X510250Y235500D02*
D03*
X520250D02*
D03*
X447000Y268000D02*
D03*
X457000D02*
D03*
X457000Y258000D02*
D03*
X447000D02*
D03*
X75000Y85750D02*
D03*
X85000D02*
D03*
X505352Y50150D02*
D03*
X515352D02*
D03*
X183500Y266000D02*
D03*
X173500D02*
D03*
X198000Y226250D02*
D03*
X188000D02*
D03*
X213250Y257250D02*
D03*
X203250D02*
D03*
X215000Y244350D02*
D03*
X205000D02*
D03*
X198000Y235250D02*
D03*
X188000D02*
D03*
X172250Y276000D02*
D03*
X162250D02*
D03*
X560000Y109350D02*
D03*
X550000D02*
D03*
X505352Y60150D02*
D03*
X515352D02*
D03*
X510250Y225500D02*
D03*
X520250D02*
D03*
X550000Y140350D02*
D03*
X560000D02*
D03*
X202750Y279750D02*
D03*
X212750D02*
D03*
X555250Y270500D02*
D03*
X565250Y270500D02*
D03*
X627500Y272750D02*
D03*
X617500D02*
D03*
X137500Y406950D02*
D03*
X127500D02*
D03*
X269250Y401700D02*
D03*
X259250D02*
D03*
X229500Y584450D02*
D03*
X219500D02*
D03*
X96500Y595950D02*
D03*
X106500D02*
D03*
Y605950D02*
D03*
X96500D02*
D03*
X149000Y629700D02*
D03*
X159000D02*
D03*
X149000Y619700D02*
D03*
X159000D02*
D03*
X177000Y592700D02*
D03*
X167000D02*
D03*
X626250Y456200D02*
D03*
X616250D02*
D03*
X510250Y599200D02*
D03*
X520250D02*
D03*
X447000Y631700D02*
D03*
X457000D02*
D03*
X457000Y621700D02*
D03*
X447000D02*
D03*
X75000Y449450D02*
D03*
X85000D02*
D03*
X505352Y413850D02*
D03*
X515352D02*
D03*
X183500Y629700D02*
D03*
X173500D02*
D03*
X198000Y589950D02*
D03*
X188000D02*
D03*
X213250Y620950D02*
D03*
X203250D02*
D03*
X215000Y608050D02*
D03*
X205000D02*
D03*
X198000Y598950D02*
D03*
X188000D02*
D03*
X172250Y639700D02*
D03*
X162250D02*
D03*
X560000Y473050D02*
D03*
X550000D02*
D03*
X505352Y423850D02*
D03*
X515352D02*
D03*
X510250Y589200D02*
D03*
X520250D02*
D03*
X550000Y504050D02*
D03*
X560000D02*
D03*
X202750Y643450D02*
D03*
X212750D02*
D03*
X555250Y634200D02*
D03*
X565250Y634200D02*
D03*
X627500Y636450D02*
D03*
X617500D02*
D03*
X137500Y770650D02*
D03*
X127500D02*
D03*
X269250Y765400D02*
D03*
X259250D02*
D03*
X229500Y948150D02*
D03*
X219500D02*
D03*
X96500Y959650D02*
D03*
X106500D02*
D03*
Y969650D02*
D03*
X96500D02*
D03*
X149000Y993400D02*
D03*
X159000D02*
D03*
X149000Y983400D02*
D03*
X159000D02*
D03*
X177000Y956400D02*
D03*
X167000D02*
D03*
X626250Y819900D02*
D03*
X616250D02*
D03*
X510250Y962900D02*
D03*
X520250D02*
D03*
X447000Y995400D02*
D03*
X457000D02*
D03*
X457000Y985400D02*
D03*
X447000D02*
D03*
X75000Y813150D02*
D03*
X85000D02*
D03*
X505352Y777550D02*
D03*
X515352D02*
D03*
X183500Y993400D02*
D03*
X173500D02*
D03*
X198000Y953650D02*
D03*
X188000D02*
D03*
X213250Y984650D02*
D03*
X203250D02*
D03*
X215000Y971750D02*
D03*
X205000D02*
D03*
X198000Y962650D02*
D03*
X188000D02*
D03*
X172250Y1003400D02*
D03*
X162250D02*
D03*
X560000Y836750D02*
D03*
X550000D02*
D03*
X505352Y787550D02*
D03*
X515352D02*
D03*
X510250Y952900D02*
D03*
X520250D02*
D03*
X550000Y867750D02*
D03*
X560000D02*
D03*
X202750Y1007150D02*
D03*
X212750D02*
D03*
X555250Y997900D02*
D03*
X565250Y997900D02*
D03*
X627500Y1000150D02*
D03*
X617500D02*
D03*
X137500Y1134350D02*
D03*
X127500D02*
D03*
X269250Y1129100D02*
D03*
X259250D02*
D03*
X229500Y1311850D02*
D03*
X219500D02*
D03*
X96500Y1323350D02*
D03*
X106500D02*
D03*
Y1333350D02*
D03*
X96500D02*
D03*
X149000Y1357100D02*
D03*
X159000D02*
D03*
X149000Y1347100D02*
D03*
X159000D02*
D03*
X177000Y1320100D02*
D03*
X167000D02*
D03*
X626250Y1183600D02*
D03*
X616250D02*
D03*
X510250Y1326600D02*
D03*
X520250D02*
D03*
X447000Y1359100D02*
D03*
X457000D02*
D03*
X457000Y1349100D02*
D03*
X447000D02*
D03*
X75000Y1176850D02*
D03*
X85000D02*
D03*
X505352Y1141250D02*
D03*
X515352D02*
D03*
X183500Y1357100D02*
D03*
X173500D02*
D03*
X198000Y1317350D02*
D03*
X188000D02*
D03*
X213250Y1348350D02*
D03*
X203250D02*
D03*
X215000Y1335450D02*
D03*
X205000D02*
D03*
X198000Y1326350D02*
D03*
X188000D02*
D03*
X172250Y1367100D02*
D03*
X162250D02*
D03*
X560000Y1200450D02*
D03*
X550000D02*
D03*
X505352Y1151250D02*
D03*
X515352D02*
D03*
X510250Y1316600D02*
D03*
X520250D02*
D03*
X550000Y1231450D02*
D03*
X560000D02*
D03*
X202750Y1370850D02*
D03*
X212750D02*
D03*
X555250Y1361600D02*
D03*
X565250Y1361600D02*
D03*
X627500Y1363850D02*
D03*
X617500D02*
D03*
D131*
X286250Y67000D02*
D03*
Y50000D02*
D03*
X83000Y36500D02*
D03*
Y53500D02*
D03*
X286250Y430700D02*
D03*
Y413700D02*
D03*
X83000Y400200D02*
D03*
Y417200D02*
D03*
X286250Y794400D02*
D03*
Y777400D02*
D03*
X83000Y763900D02*
D03*
Y780900D02*
D03*
X286250Y1158100D02*
D03*
Y1141100D02*
D03*
X83000Y1127600D02*
D03*
Y1144600D02*
D03*
D132*
X194250Y75250D02*
D03*
X211250D02*
D03*
X167750Y89500D02*
D03*
X150750D02*
D03*
X259000Y81750D02*
D03*
X276000D02*
D03*
X194250Y438950D02*
D03*
X211250D02*
D03*
X167750Y453200D02*
D03*
X150750D02*
D03*
X259000Y445450D02*
D03*
X276000D02*
D03*
X194250Y802650D02*
D03*
X211250D02*
D03*
X167750Y816900D02*
D03*
X150750D02*
D03*
X259000Y809150D02*
D03*
X276000D02*
D03*
X194250Y1166350D02*
D03*
X211250D02*
D03*
X167750Y1180600D02*
D03*
X150750D02*
D03*
X259000Y1172850D02*
D03*
X276000D02*
D03*
D133*
X150359Y60341D02*
D03*
Y70341D02*
D03*
X240109Y51091D02*
D03*
Y61091D02*
D03*
X150250Y39250D02*
D03*
Y49250D02*
D03*
X531250Y225500D02*
D03*
Y235500D02*
D03*
X484352Y70150D02*
D03*
Y60150D02*
D03*
X206500Y110000D02*
D03*
Y120000D02*
D03*
X84750Y64750D02*
D03*
Y74750D02*
D03*
X104750Y58750D02*
D03*
Y48750D02*
D03*
X357751Y143250D02*
D03*
Y153250D02*
D03*
X236250Y250250D02*
D03*
Y260250D02*
D03*
X484352Y50150D02*
D03*
Y40150D02*
D03*
X150359Y424041D02*
D03*
Y434041D02*
D03*
X240109Y414791D02*
D03*
Y424791D02*
D03*
X150250Y402950D02*
D03*
Y412950D02*
D03*
X531250Y589200D02*
D03*
Y599200D02*
D03*
X484352Y433850D02*
D03*
Y423850D02*
D03*
X206500Y473700D02*
D03*
Y483700D02*
D03*
X84750Y428450D02*
D03*
Y438450D02*
D03*
X104750Y422450D02*
D03*
Y412450D02*
D03*
X357751Y506950D02*
D03*
Y516950D02*
D03*
X236250Y613950D02*
D03*
Y623950D02*
D03*
X484352Y413850D02*
D03*
Y403850D02*
D03*
X150359Y787741D02*
D03*
Y797741D02*
D03*
X240109Y778491D02*
D03*
Y788491D02*
D03*
X150250Y766650D02*
D03*
Y776650D02*
D03*
X531250Y952900D02*
D03*
Y962900D02*
D03*
X484352Y797550D02*
D03*
Y787550D02*
D03*
X206500Y837400D02*
D03*
Y847400D02*
D03*
X84750Y792150D02*
D03*
Y802150D02*
D03*
X104750Y786150D02*
D03*
Y776150D02*
D03*
X357751Y870650D02*
D03*
Y880650D02*
D03*
X236250Y977650D02*
D03*
Y987650D02*
D03*
X484352Y777550D02*
D03*
Y767550D02*
D03*
X150359Y1151441D02*
D03*
Y1161441D02*
D03*
X240109Y1142191D02*
D03*
Y1152191D02*
D03*
X150250Y1130350D02*
D03*
Y1140350D02*
D03*
X531250Y1316600D02*
D03*
Y1326600D02*
D03*
X484352Y1161250D02*
D03*
Y1151250D02*
D03*
X206500Y1201100D02*
D03*
Y1211100D02*
D03*
X84750Y1155850D02*
D03*
Y1165850D02*
D03*
X104750Y1149850D02*
D03*
Y1139850D02*
D03*
X357751Y1234350D02*
D03*
Y1244350D02*
D03*
X236250Y1341350D02*
D03*
Y1351350D02*
D03*
X484352Y1141250D02*
D03*
Y1131250D02*
D03*
D134*
X230000Y41250D02*
D03*
X240000D02*
D03*
X637328Y176600D02*
D03*
X627328Y176600D02*
D03*
X637328Y136600D02*
D03*
X627328D02*
D03*
X72250Y241500D02*
D03*
X82250D02*
D03*
X95000Y96250D02*
D03*
X85000D02*
D03*
X147250Y245500D02*
D03*
X157250D02*
D03*
X149750Y233500D02*
D03*
X139750D02*
D03*
X149750Y222500D02*
D03*
X139750D02*
D03*
X94750Y37750D02*
D03*
X104750D02*
D03*
X226000Y239500D02*
D03*
X236000D02*
D03*
X194500Y266750D02*
D03*
X204500D02*
D03*
X549926Y98771D02*
D03*
X539927D02*
D03*
X559927Y98771D02*
D03*
X569926D02*
D03*
X321250Y39250D02*
D03*
X311250D02*
D03*
X321275Y50205D02*
D03*
X311275D02*
D03*
X321250Y61250D02*
D03*
X311250D02*
D03*
X230000Y404950D02*
D03*
X240000D02*
D03*
X637328Y540300D02*
D03*
X627328Y540300D02*
D03*
X637328Y500300D02*
D03*
X627328D02*
D03*
X72250Y605200D02*
D03*
X82250D02*
D03*
X95000Y459950D02*
D03*
X85000D02*
D03*
X147250Y609200D02*
D03*
X157250D02*
D03*
X149750Y597200D02*
D03*
X139750D02*
D03*
X149750Y586200D02*
D03*
X139750D02*
D03*
X94750Y401450D02*
D03*
X104750D02*
D03*
X226000Y603200D02*
D03*
X236000D02*
D03*
X194500Y630450D02*
D03*
X204500D02*
D03*
X549926Y462471D02*
D03*
X539927D02*
D03*
X559927Y462471D02*
D03*
X569926D02*
D03*
X321250Y402950D02*
D03*
X311250D02*
D03*
X321275Y413905D02*
D03*
X311275D02*
D03*
X321250Y424950D02*
D03*
X311250D02*
D03*
X230000Y768650D02*
D03*
X240000D02*
D03*
X637328Y904000D02*
D03*
X627328Y904000D02*
D03*
X637328Y864000D02*
D03*
X627328D02*
D03*
X72250Y968900D02*
D03*
X82250D02*
D03*
X95000Y823650D02*
D03*
X85000D02*
D03*
X147250Y972900D02*
D03*
X157250D02*
D03*
X149750Y960900D02*
D03*
X139750D02*
D03*
X149750Y949900D02*
D03*
X139750D02*
D03*
X94750Y765150D02*
D03*
X104750D02*
D03*
X226000Y966900D02*
D03*
X236000D02*
D03*
X194500Y994150D02*
D03*
X204500D02*
D03*
X549926Y826171D02*
D03*
X539927D02*
D03*
X559927Y826171D02*
D03*
X569926D02*
D03*
X321250Y766650D02*
D03*
X311250D02*
D03*
X321275Y777605D02*
D03*
X311275D02*
D03*
X321250Y788650D02*
D03*
X311250D02*
D03*
X230000Y1132350D02*
D03*
X240000D02*
D03*
X637328Y1267700D02*
D03*
X627328Y1267700D02*
D03*
X637328Y1227700D02*
D03*
X627328D02*
D03*
X72250Y1332600D02*
D03*
X82250D02*
D03*
X95000Y1187350D02*
D03*
X85000D02*
D03*
X147250Y1336600D02*
D03*
X157250D02*
D03*
X149750Y1324600D02*
D03*
X139750D02*
D03*
X149750Y1313600D02*
D03*
X139750D02*
D03*
X94750Y1128850D02*
D03*
X104750D02*
D03*
X226000Y1330600D02*
D03*
X236000D02*
D03*
X194500Y1357850D02*
D03*
X204500D02*
D03*
X549926Y1189871D02*
D03*
X539927D02*
D03*
X559927Y1189871D02*
D03*
X569926D02*
D03*
X321250Y1130350D02*
D03*
X311250D02*
D03*
X321275Y1141305D02*
D03*
X311275D02*
D03*
X321250Y1152350D02*
D03*
X311250D02*
D03*
D135*
X168000Y31636D02*
D03*
X168000Y41636D02*
D03*
X71750Y109250D02*
D03*
Y99250D02*
D03*
X171750Y245750D02*
D03*
Y255750D02*
D03*
X129250Y237500D02*
D03*
Y227500D02*
D03*
X589750Y71500D02*
D03*
Y81500D02*
D03*
Y117500D02*
D03*
Y127500D02*
D03*
X617500Y123750D02*
D03*
Y113750D02*
D03*
X499750Y225500D02*
D03*
Y235500D02*
D03*
X550000Y119850D02*
D03*
Y129850D02*
D03*
X87751Y209500D02*
D03*
Y199500D02*
D03*
X82750Y220500D02*
D03*
Y230500D02*
D03*
X246750Y258250D02*
D03*
Y268250D02*
D03*
X247000Y239500D02*
D03*
Y229500D02*
D03*
X468000Y268000D02*
D03*
Y258000D02*
D03*
X225750Y256100D02*
D03*
Y266100D02*
D03*
X494852Y50150D02*
D03*
Y60150D02*
D03*
X436500Y258000D02*
D03*
Y268000D02*
D03*
X525852Y60150D02*
D03*
Y50150D02*
D03*
X560000Y129850D02*
D03*
Y119850D02*
D03*
X209000Y230250D02*
D03*
Y220250D02*
D03*
X593500Y216000D02*
D03*
Y226000D02*
D03*
X618250Y233250D02*
D03*
Y243250D02*
D03*
X168000Y395336D02*
D03*
X168000Y405336D02*
D03*
X71750Y472950D02*
D03*
Y462950D02*
D03*
X171750Y609450D02*
D03*
Y619450D02*
D03*
X129250Y601200D02*
D03*
Y591200D02*
D03*
X589750Y435200D02*
D03*
Y445200D02*
D03*
Y481200D02*
D03*
Y491200D02*
D03*
X617500Y487450D02*
D03*
Y477450D02*
D03*
X499750Y589200D02*
D03*
Y599200D02*
D03*
X550000Y483550D02*
D03*
Y493550D02*
D03*
X87751Y573200D02*
D03*
Y563200D02*
D03*
X82750Y584200D02*
D03*
Y594200D02*
D03*
X246750Y621950D02*
D03*
Y631950D02*
D03*
X247000Y603200D02*
D03*
Y593200D02*
D03*
X468000Y631700D02*
D03*
Y621700D02*
D03*
X225750Y619800D02*
D03*
Y629800D02*
D03*
X494852Y413850D02*
D03*
Y423850D02*
D03*
X436500Y621700D02*
D03*
Y631700D02*
D03*
X525852Y423851D02*
D03*
Y413851D02*
D03*
X560000Y493550D02*
D03*
Y483550D02*
D03*
X209000Y593950D02*
D03*
Y583950D02*
D03*
X593500Y579700D02*
D03*
Y589700D02*
D03*
X618250Y596950D02*
D03*
Y606950D02*
D03*
X168000Y759036D02*
D03*
X168000Y769036D02*
D03*
X71750Y836650D02*
D03*
Y826650D02*
D03*
X171750Y973150D02*
D03*
Y983150D02*
D03*
X129250Y964900D02*
D03*
Y954900D02*
D03*
X589750Y798900D02*
D03*
Y808900D02*
D03*
Y844900D02*
D03*
Y854900D02*
D03*
X617500Y851150D02*
D03*
Y841150D02*
D03*
X499750Y952900D02*
D03*
Y962900D02*
D03*
X550000Y847250D02*
D03*
Y857250D02*
D03*
X87751Y936900D02*
D03*
Y926900D02*
D03*
X82750Y947900D02*
D03*
Y957900D02*
D03*
X246750Y985650D02*
D03*
Y995650D02*
D03*
X247000Y966900D02*
D03*
Y956900D02*
D03*
X468000Y995400D02*
D03*
Y985400D02*
D03*
X225750Y983500D02*
D03*
Y993500D02*
D03*
X494852Y777550D02*
D03*
Y787550D02*
D03*
X436500Y985400D02*
D03*
Y995400D02*
D03*
X525852Y787551D02*
D03*
Y777551D02*
D03*
X560000Y857250D02*
D03*
Y847250D02*
D03*
X209000Y957650D02*
D03*
Y947650D02*
D03*
X593500Y943400D02*
D03*
Y953400D02*
D03*
X618250Y960650D02*
D03*
Y970650D02*
D03*
X168000Y1122736D02*
D03*
X168000Y1132736D02*
D03*
X71750Y1200350D02*
D03*
Y1190350D02*
D03*
X171750Y1336850D02*
D03*
Y1346850D02*
D03*
X129250Y1328600D02*
D03*
Y1318600D02*
D03*
X589750Y1162600D02*
D03*
Y1172600D02*
D03*
Y1208600D02*
D03*
Y1218600D02*
D03*
X617500Y1214850D02*
D03*
Y1204850D02*
D03*
X499750Y1316600D02*
D03*
Y1326600D02*
D03*
X550000Y1210950D02*
D03*
Y1220950D02*
D03*
X87751Y1300600D02*
D03*
Y1290600D02*
D03*
X82750Y1311600D02*
D03*
Y1321600D02*
D03*
X246750Y1349350D02*
D03*
Y1359350D02*
D03*
X247000Y1330600D02*
D03*
Y1320600D02*
D03*
X468000Y1359100D02*
D03*
Y1349100D02*
D03*
X225750Y1347200D02*
D03*
Y1357200D02*
D03*
X494852Y1141250D02*
D03*
Y1151250D02*
D03*
X436500Y1349100D02*
D03*
Y1359100D02*
D03*
X525852Y1151251D02*
D03*
Y1141251D02*
D03*
X560000Y1220950D02*
D03*
Y1210950D02*
D03*
X209000Y1321350D02*
D03*
Y1311350D02*
D03*
X593500Y1307100D02*
D03*
Y1317100D02*
D03*
X618250Y1324350D02*
D03*
Y1334350D02*
D03*
D136*
X161500Y55750D02*
D03*
X168000D02*
D03*
X174500D02*
D03*
X181000D02*
D03*
Y74750D02*
D03*
X174500D02*
D03*
X168000D02*
D03*
X161500D02*
D03*
X251250Y66750D02*
D03*
X257750D02*
D03*
X264250D02*
D03*
X270750D02*
D03*
Y47750D02*
D03*
X264250D02*
D03*
X257750D02*
D03*
X251250D02*
D03*
X161500Y419450D02*
D03*
X168000D02*
D03*
X174500D02*
D03*
X181000D02*
D03*
Y438450D02*
D03*
X174500D02*
D03*
X168000D02*
D03*
X161500D02*
D03*
X251250Y430450D02*
D03*
X257750D02*
D03*
X264250D02*
D03*
X270750D02*
D03*
Y411450D02*
D03*
X264250D02*
D03*
X257750D02*
D03*
X251250D02*
D03*
X161500Y783150D02*
D03*
X168000D02*
D03*
X174500D02*
D03*
X181000D02*
D03*
Y802150D02*
D03*
X174500D02*
D03*
X168000D02*
D03*
X161500D02*
D03*
X251250Y794150D02*
D03*
X257750D02*
D03*
X264250D02*
D03*
X270750D02*
D03*
Y775150D02*
D03*
X264250D02*
D03*
X257750D02*
D03*
X251250D02*
D03*
X161500Y1146850D02*
D03*
X168000D02*
D03*
X174500D02*
D03*
X181000D02*
D03*
Y1165850D02*
D03*
X174500D02*
D03*
X168000D02*
D03*
X161500D02*
D03*
X251250Y1157850D02*
D03*
X257750D02*
D03*
X264250D02*
D03*
X270750D02*
D03*
Y1138850D02*
D03*
X264250D02*
D03*
X257750D02*
D03*
X251250D02*
D03*
D137*
X171250Y65250D02*
D03*
X261000Y57250D02*
D03*
X171250Y428950D02*
D03*
X261000Y420950D02*
D03*
X171250Y792650D02*
D03*
X261000Y784650D02*
D03*
X171250Y1156350D02*
D03*
X261000Y1148350D02*
D03*
D138*
X557500Y24250D02*
D03*
X392500D02*
D03*
X557500Y289250D02*
D03*
X392500D02*
D03*
X114750Y24250D02*
D03*
X279750D02*
D03*
X114750Y289250D02*
D03*
X279750D02*
D03*
X557500Y387950D02*
D03*
X392500D02*
D03*
X557500Y652950D02*
D03*
X392500D02*
D03*
X114750Y387950D02*
D03*
X279750D02*
D03*
X114750Y652950D02*
D03*
X279750D02*
D03*
X557500Y751650D02*
D03*
X392500D02*
D03*
X557500Y1016650D02*
D03*
X392500D02*
D03*
X114750Y751650D02*
D03*
X279750D02*
D03*
X114750Y1016650D02*
D03*
X279750D02*
D03*
X557500Y1115350D02*
D03*
X392500D02*
D03*
X557500Y1380350D02*
D03*
X392500D02*
D03*
X114750Y1115350D02*
D03*
X279750D02*
D03*
X114750Y1380350D02*
D03*
X279750D02*
D03*
D139*
X577500Y24250D02*
D03*
X537500D02*
D03*
X412500D02*
D03*
X372500D02*
D03*
X537500Y289250D02*
D03*
X577500D02*
D03*
X412500D02*
D03*
X372500D02*
D03*
X94750Y24250D02*
D03*
X134750D02*
D03*
X299750D02*
D03*
X259750D02*
D03*
X94750Y289250D02*
D03*
X134750D02*
D03*
X299750D02*
D03*
X259750D02*
D03*
X577500Y387950D02*
D03*
X537500D02*
D03*
X412500D02*
D03*
X372500D02*
D03*
X537500Y652950D02*
D03*
X577500D02*
D03*
X412500D02*
D03*
X372500D02*
D03*
X94750Y387950D02*
D03*
X134750D02*
D03*
X299750D02*
D03*
X259750D02*
D03*
X94750Y652950D02*
D03*
X134750D02*
D03*
X299750D02*
D03*
X259750D02*
D03*
X577500Y751650D02*
D03*
X537500D02*
D03*
X412500D02*
D03*
X372500D02*
D03*
X537500Y1016650D02*
D03*
X577500D02*
D03*
X412500D02*
D03*
X372500D02*
D03*
X94750Y751650D02*
D03*
X134750D02*
D03*
X299750D02*
D03*
X259750D02*
D03*
X94750Y1016650D02*
D03*
X134750D02*
D03*
X299750D02*
D03*
X259750D02*
D03*
X577500Y1115350D02*
D03*
X537500D02*
D03*
X412500D02*
D03*
X372500D02*
D03*
X537500Y1380350D02*
D03*
X577500D02*
D03*
X412500D02*
D03*
X372500D02*
D03*
X94750Y1115350D02*
D03*
X134750D02*
D03*
X299750D02*
D03*
X259750D02*
D03*
X94750Y1380350D02*
D03*
X134750D02*
D03*
X299750D02*
D03*
X259750D02*
D03*
D140*
X234349Y199350D02*
D03*
X239349D02*
D03*
X244349D02*
D03*
X249349D02*
D03*
X254349D02*
D03*
X259349D02*
D03*
X264349D02*
D03*
X269349D02*
D03*
X274349D02*
D03*
X279349D02*
D03*
X284349D02*
D03*
X289349D02*
D03*
X294349D02*
D03*
X299349D02*
D03*
X304349D02*
D03*
X309349D02*
D03*
X229349Y194350D02*
D03*
X234349D02*
D03*
X239349D02*
D03*
X244349D02*
D03*
X249349D02*
D03*
X254349D02*
D03*
X259349D02*
D03*
X264349D02*
D03*
X269349D02*
D03*
X274349D02*
D03*
X279349D02*
D03*
X284349D02*
D03*
X289349D02*
D03*
X294349D02*
D03*
X299349D02*
D03*
X304349D02*
D03*
X309349D02*
D03*
X314349D02*
D03*
X229349Y189350D02*
D03*
X234349D02*
D03*
X239349D02*
D03*
X244349D02*
D03*
X249349D02*
D03*
X254349D02*
D03*
X259349D02*
D03*
X264349D02*
D03*
X269349D02*
D03*
X274349D02*
D03*
X279349D02*
D03*
X284349D02*
D03*
X289349D02*
D03*
X294349D02*
D03*
X299349D02*
D03*
X304349D02*
D03*
X309349D02*
D03*
X314349D02*
D03*
X229349Y184350D02*
D03*
X234349D02*
D03*
X239349D02*
D03*
X269349D02*
D03*
X304349D02*
D03*
X309349D02*
D03*
X314349D02*
D03*
X249349Y179350D02*
D03*
X254349D02*
D03*
X259349D02*
D03*
X264349D02*
D03*
X269349D02*
D03*
X274349D02*
D03*
X279349D02*
D03*
X284349D02*
D03*
X289349D02*
D03*
X294349D02*
D03*
X229349Y174350D02*
D03*
X234349D02*
D03*
X239349D02*
D03*
X244349D02*
D03*
X249349D02*
D03*
X254349D02*
D03*
X259349D02*
D03*
X264349D02*
D03*
X269349D02*
D03*
X274349D02*
D03*
X279349D02*
D03*
X284349D02*
D03*
X289349D02*
D03*
X294349D02*
D03*
X299349D02*
D03*
X304349D02*
D03*
X309349D02*
D03*
X314349D02*
D03*
X229349Y169350D02*
D03*
X234349D02*
D03*
X239349D02*
D03*
X244349D02*
D03*
X249349D02*
D03*
X254349D02*
D03*
X259349D02*
D03*
X264349D02*
D03*
X269349D02*
D03*
X274349D02*
D03*
X279349D02*
D03*
X284349D02*
D03*
X289349D02*
D03*
X294349D02*
D03*
X299349D02*
D03*
X304349D02*
D03*
X309349D02*
D03*
X314349D02*
D03*
X229349Y164350D02*
D03*
X234349D02*
D03*
X239349D02*
D03*
X244349D02*
D03*
X249349D02*
D03*
X254349D02*
D03*
X259349D02*
D03*
X264349D02*
D03*
X269349D02*
D03*
X274349D02*
D03*
X279349D02*
D03*
X284349D02*
D03*
X289349D02*
D03*
X294349D02*
D03*
X299349D02*
D03*
X304349D02*
D03*
X309349D02*
D03*
X314349D02*
D03*
X229349Y159350D02*
D03*
X234349D02*
D03*
X239349D02*
D03*
X244349D02*
D03*
X249349D02*
D03*
X254349D02*
D03*
X259349D02*
D03*
X264349D02*
D03*
X269349D02*
D03*
X274349D02*
D03*
X279349D02*
D03*
X284349D02*
D03*
X289349D02*
D03*
X294349D02*
D03*
X299349D02*
D03*
X304349D02*
D03*
X309349D02*
D03*
X314349D02*
D03*
X229349Y154350D02*
D03*
X234349D02*
D03*
X239349D02*
D03*
X244349D02*
D03*
X249349D02*
D03*
X254349D02*
D03*
X259349D02*
D03*
X264349D02*
D03*
X269349D02*
D03*
X274349D02*
D03*
X279349D02*
D03*
X284349D02*
D03*
X289349D02*
D03*
X294349D02*
D03*
X299349D02*
D03*
X304349D02*
D03*
X309349D02*
D03*
X314349D02*
D03*
X229349Y149350D02*
D03*
X234349D02*
D03*
X239349D02*
D03*
X244349D02*
D03*
X249349D02*
D03*
X254349D02*
D03*
X259349D02*
D03*
X264349D02*
D03*
X269349D02*
D03*
X274349D02*
D03*
X279349D02*
D03*
X284349D02*
D03*
X289349D02*
D03*
X294349D02*
D03*
X299349D02*
D03*
X304349D02*
D03*
X309349D02*
D03*
X314349D02*
D03*
X229349Y144350D02*
D03*
X234349D02*
D03*
X239349D02*
D03*
X244349D02*
D03*
X249349D02*
D03*
X254349D02*
D03*
X259349D02*
D03*
X264349D02*
D03*
X269349D02*
D03*
X274349D02*
D03*
X279349D02*
D03*
X284349D02*
D03*
X289349D02*
D03*
X294349D02*
D03*
X299349D02*
D03*
X304349D02*
D03*
X309349D02*
D03*
X314349D02*
D03*
X229349Y139350D02*
D03*
X234349D02*
D03*
X239349D02*
D03*
X244349D02*
D03*
X249349D02*
D03*
X254349D02*
D03*
X259349D02*
D03*
X264349D02*
D03*
X269349D02*
D03*
X274349D02*
D03*
X279349D02*
D03*
X284349D02*
D03*
X289349D02*
D03*
X294349D02*
D03*
X299349D02*
D03*
X304349D02*
D03*
X309349D02*
D03*
X314349D02*
D03*
X249349Y134350D02*
D03*
X254349D02*
D03*
X259349D02*
D03*
X264349D02*
D03*
X269349D02*
D03*
X274349D02*
D03*
X279349D02*
D03*
X284349D02*
D03*
X289349D02*
D03*
X294349D02*
D03*
X229349Y129350D02*
D03*
X234349D02*
D03*
X239349D02*
D03*
X244349D02*
D03*
X254349D02*
D03*
X259349D02*
D03*
X264349D02*
D03*
X269349D02*
D03*
X274349D02*
D03*
X279349D02*
D03*
X284349D02*
D03*
X289349D02*
D03*
X299349D02*
D03*
X304349D02*
D03*
X309349D02*
D03*
X314349D02*
D03*
X229349Y124350D02*
D03*
X234349D02*
D03*
X239349D02*
D03*
X244349D02*
D03*
X254349D02*
D03*
X259349D02*
D03*
X264349D02*
D03*
X269349D02*
D03*
X274349D02*
D03*
X279349D02*
D03*
X284349D02*
D03*
X289349D02*
D03*
X299349D02*
D03*
X304349D02*
D03*
X309349D02*
D03*
X314349D02*
D03*
X229349Y119350D02*
D03*
X234349D02*
D03*
X239349D02*
D03*
X244349D02*
D03*
X254349D02*
D03*
X259349D02*
D03*
X264349D02*
D03*
X269349D02*
D03*
X274349D02*
D03*
X279349D02*
D03*
X284349D02*
D03*
X289349D02*
D03*
X299349D02*
D03*
X304349D02*
D03*
X309349D02*
D03*
X314349D02*
D03*
X234349Y114350D02*
D03*
X239349D02*
D03*
X244349D02*
D03*
X254349D02*
D03*
X259349D02*
D03*
X264349D02*
D03*
X269349D02*
D03*
X274349D02*
D03*
X279349D02*
D03*
X284349D02*
D03*
X289349D02*
D03*
X299349D02*
D03*
X304349D02*
D03*
X309349D02*
D03*
X234349Y563050D02*
D03*
X239349D02*
D03*
X244349D02*
D03*
X249349D02*
D03*
X254349D02*
D03*
X259349D02*
D03*
X264349D02*
D03*
X269349D02*
D03*
X274349D02*
D03*
X279349D02*
D03*
X284349D02*
D03*
X289349D02*
D03*
X294349D02*
D03*
X299349D02*
D03*
X304349D02*
D03*
X309349D02*
D03*
X229349Y558050D02*
D03*
X234349D02*
D03*
X239349D02*
D03*
X244349D02*
D03*
X249349D02*
D03*
X254349D02*
D03*
X259349D02*
D03*
X264349D02*
D03*
X269349D02*
D03*
X274349D02*
D03*
X279349D02*
D03*
X284349D02*
D03*
X289349D02*
D03*
X294349D02*
D03*
X299349D02*
D03*
X304349D02*
D03*
X309349D02*
D03*
X314349D02*
D03*
X229349Y553050D02*
D03*
X234349D02*
D03*
X239349D02*
D03*
X244349D02*
D03*
X249349D02*
D03*
X254349D02*
D03*
X259349D02*
D03*
X264349D02*
D03*
X269349D02*
D03*
X274349D02*
D03*
X279349D02*
D03*
X284349D02*
D03*
X289349D02*
D03*
X294349D02*
D03*
X299349D02*
D03*
X304349D02*
D03*
X309349D02*
D03*
X314349D02*
D03*
X229349Y548050D02*
D03*
X234349D02*
D03*
X239349D02*
D03*
X269349D02*
D03*
X304349D02*
D03*
X309349D02*
D03*
X314349D02*
D03*
X249349Y543050D02*
D03*
X254349D02*
D03*
X259349D02*
D03*
X264349D02*
D03*
X269349D02*
D03*
X274349D02*
D03*
X279349D02*
D03*
X284349D02*
D03*
X289349D02*
D03*
X294349D02*
D03*
X229349Y538050D02*
D03*
X234349D02*
D03*
X239349D02*
D03*
X244349D02*
D03*
X249349D02*
D03*
X254349D02*
D03*
X259349D02*
D03*
X264349D02*
D03*
X269349D02*
D03*
X274349D02*
D03*
X279349D02*
D03*
X284349D02*
D03*
X289349D02*
D03*
X294349D02*
D03*
X299349D02*
D03*
X304349D02*
D03*
X309349D02*
D03*
X314349D02*
D03*
X229349Y533050D02*
D03*
X234349D02*
D03*
X239349D02*
D03*
X244349D02*
D03*
X249349D02*
D03*
X254349D02*
D03*
X259349D02*
D03*
X264349D02*
D03*
X269349D02*
D03*
X274349D02*
D03*
X279349D02*
D03*
X284349D02*
D03*
X289349D02*
D03*
X294349D02*
D03*
X299349D02*
D03*
X304349D02*
D03*
X309349D02*
D03*
X314349D02*
D03*
X229349Y528050D02*
D03*
X234349D02*
D03*
X239349D02*
D03*
X244349D02*
D03*
X249349D02*
D03*
X254349D02*
D03*
X259349D02*
D03*
X264349D02*
D03*
X269349D02*
D03*
X274349D02*
D03*
X279349D02*
D03*
X284349D02*
D03*
X289349D02*
D03*
X294349D02*
D03*
X299349D02*
D03*
X304349D02*
D03*
X309349D02*
D03*
X314349D02*
D03*
X229349Y523050D02*
D03*
X234349D02*
D03*
X239349D02*
D03*
X244349D02*
D03*
X249349D02*
D03*
X254349D02*
D03*
X259349D02*
D03*
X264349D02*
D03*
X269349D02*
D03*
X274349D02*
D03*
X279349D02*
D03*
X284349D02*
D03*
X289349D02*
D03*
X294349D02*
D03*
X299349D02*
D03*
X304349D02*
D03*
X309349D02*
D03*
X314349D02*
D03*
X229349Y518050D02*
D03*
X234349D02*
D03*
X239349D02*
D03*
X244349D02*
D03*
X249349D02*
D03*
X254349D02*
D03*
X259349D02*
D03*
X264349D02*
D03*
X269349D02*
D03*
X274349D02*
D03*
X279349D02*
D03*
X284349D02*
D03*
X289349D02*
D03*
X294349D02*
D03*
X299349D02*
D03*
X304349D02*
D03*
X309349D02*
D03*
X314349D02*
D03*
X229349Y513050D02*
D03*
X234349D02*
D03*
X239349D02*
D03*
X244349D02*
D03*
X249349D02*
D03*
X254349D02*
D03*
X259349D02*
D03*
X264349D02*
D03*
X269349D02*
D03*
X274349D02*
D03*
X279349D02*
D03*
X284349D02*
D03*
X289349D02*
D03*
X294349D02*
D03*
X299349D02*
D03*
X304349D02*
D03*
X309349D02*
D03*
X314349D02*
D03*
X229349Y508050D02*
D03*
X234349D02*
D03*
X239349D02*
D03*
X244349D02*
D03*
X249349D02*
D03*
X254349D02*
D03*
X259349D02*
D03*
X264349D02*
D03*
X269349D02*
D03*
X274349D02*
D03*
X279349D02*
D03*
X284349D02*
D03*
X289349D02*
D03*
X294349D02*
D03*
X299349D02*
D03*
X304349D02*
D03*
X309349D02*
D03*
X314349D02*
D03*
X229349Y503050D02*
D03*
X234349D02*
D03*
X239349D02*
D03*
X244349D02*
D03*
X249349D02*
D03*
X254349D02*
D03*
X259349D02*
D03*
X264349D02*
D03*
X269349D02*
D03*
X274349D02*
D03*
X279349D02*
D03*
X284349D02*
D03*
X289349D02*
D03*
X294349D02*
D03*
X299349D02*
D03*
X304349D02*
D03*
X309349D02*
D03*
X314349D02*
D03*
X249349Y498050D02*
D03*
X254349D02*
D03*
X259349D02*
D03*
X264349D02*
D03*
X269349D02*
D03*
X274349D02*
D03*
X279349D02*
D03*
X284349D02*
D03*
X289349D02*
D03*
X294349D02*
D03*
X229349Y493050D02*
D03*
X234349D02*
D03*
X239349D02*
D03*
X244349D02*
D03*
X254349D02*
D03*
X259349D02*
D03*
X264349D02*
D03*
X269349D02*
D03*
X274349D02*
D03*
X279349D02*
D03*
X284349D02*
D03*
X289349D02*
D03*
X299349D02*
D03*
X304349D02*
D03*
X309349D02*
D03*
X314349D02*
D03*
X229349Y488050D02*
D03*
X234349D02*
D03*
X239349D02*
D03*
X244349D02*
D03*
X254349D02*
D03*
X259349D02*
D03*
X264349D02*
D03*
X269349D02*
D03*
X274349D02*
D03*
X279349D02*
D03*
X284349D02*
D03*
X289349D02*
D03*
X299349D02*
D03*
X304349D02*
D03*
X309349D02*
D03*
X314349D02*
D03*
X229349Y483050D02*
D03*
X234349D02*
D03*
X239349D02*
D03*
X244349D02*
D03*
X254349D02*
D03*
X259349D02*
D03*
X264349D02*
D03*
X269349D02*
D03*
X274349D02*
D03*
X279349D02*
D03*
X284349D02*
D03*
X289349D02*
D03*
X299349D02*
D03*
X304349D02*
D03*
X309349D02*
D03*
X314349D02*
D03*
X234349Y478050D02*
D03*
X239349D02*
D03*
X244349D02*
D03*
X254349D02*
D03*
X259349D02*
D03*
X264349D02*
D03*
X269349D02*
D03*
X274349D02*
D03*
X279349D02*
D03*
X284349D02*
D03*
X289349D02*
D03*
X299349D02*
D03*
X304349D02*
D03*
X309349D02*
D03*
X234349Y926750D02*
D03*
X239349D02*
D03*
X244349D02*
D03*
X249349D02*
D03*
X254349D02*
D03*
X259349D02*
D03*
X264349D02*
D03*
X269349D02*
D03*
X274349D02*
D03*
X279349D02*
D03*
X284349D02*
D03*
X289349D02*
D03*
X294349D02*
D03*
X299349D02*
D03*
X304349D02*
D03*
X309349D02*
D03*
X229349Y921750D02*
D03*
X234349D02*
D03*
X239349D02*
D03*
X244349D02*
D03*
X249349D02*
D03*
X254349D02*
D03*
X259349D02*
D03*
X264349D02*
D03*
X269349D02*
D03*
X274349D02*
D03*
X279349D02*
D03*
X284349D02*
D03*
X289349D02*
D03*
X294349D02*
D03*
X299349D02*
D03*
X304349D02*
D03*
X309349D02*
D03*
X314349D02*
D03*
X229349Y916750D02*
D03*
X234349D02*
D03*
X239349D02*
D03*
X244349D02*
D03*
X249349D02*
D03*
X254349D02*
D03*
X259349D02*
D03*
X264349D02*
D03*
X269349D02*
D03*
X274349D02*
D03*
X279349D02*
D03*
X284349D02*
D03*
X289349D02*
D03*
X294349D02*
D03*
X299349D02*
D03*
X304349D02*
D03*
X309349D02*
D03*
X314349D02*
D03*
X229349Y911750D02*
D03*
X234349D02*
D03*
X239349D02*
D03*
X269349D02*
D03*
X304349D02*
D03*
X309349D02*
D03*
X314349D02*
D03*
X249349Y906750D02*
D03*
X254349D02*
D03*
X259349D02*
D03*
X264349D02*
D03*
X269349D02*
D03*
X274349D02*
D03*
X279349D02*
D03*
X284349D02*
D03*
X289349D02*
D03*
X294349D02*
D03*
X229349Y901750D02*
D03*
X234349D02*
D03*
X239349D02*
D03*
X244349D02*
D03*
X249349D02*
D03*
X254349D02*
D03*
X259349D02*
D03*
X264349D02*
D03*
X269349D02*
D03*
X274349D02*
D03*
X279349D02*
D03*
X284349D02*
D03*
X289349D02*
D03*
X294349D02*
D03*
X299349D02*
D03*
X304349D02*
D03*
X309349D02*
D03*
X314349D02*
D03*
X229349Y896750D02*
D03*
X234349D02*
D03*
X239349D02*
D03*
X244349D02*
D03*
X249349D02*
D03*
X254349D02*
D03*
X259349D02*
D03*
X264349D02*
D03*
X269349D02*
D03*
X274349D02*
D03*
X279349D02*
D03*
X284349D02*
D03*
X289349D02*
D03*
X294349D02*
D03*
X299349D02*
D03*
X304349D02*
D03*
X309349D02*
D03*
X314349D02*
D03*
X229349Y891750D02*
D03*
X234349D02*
D03*
X239349D02*
D03*
X244349D02*
D03*
X249349D02*
D03*
X254349D02*
D03*
X259349D02*
D03*
X264349D02*
D03*
X269349D02*
D03*
X274349D02*
D03*
X279349D02*
D03*
X284349D02*
D03*
X289349D02*
D03*
X294349D02*
D03*
X299349D02*
D03*
X304349D02*
D03*
X309349D02*
D03*
X314349D02*
D03*
X229349Y886750D02*
D03*
X234349D02*
D03*
X239349D02*
D03*
X244349D02*
D03*
X249349D02*
D03*
X254349D02*
D03*
X259349D02*
D03*
X264349D02*
D03*
X269349D02*
D03*
X274349D02*
D03*
X279349D02*
D03*
X284349D02*
D03*
X289349D02*
D03*
X294349D02*
D03*
X299349D02*
D03*
X304349D02*
D03*
X309349D02*
D03*
X314349D02*
D03*
X229349Y881750D02*
D03*
X234349D02*
D03*
X239349D02*
D03*
X244349D02*
D03*
X249349D02*
D03*
X254349D02*
D03*
X259349D02*
D03*
X264349D02*
D03*
X269349D02*
D03*
X274349D02*
D03*
X279349D02*
D03*
X284349D02*
D03*
X289349D02*
D03*
X294349D02*
D03*
X299349D02*
D03*
X304349D02*
D03*
X309349D02*
D03*
X314349D02*
D03*
X229349Y876750D02*
D03*
X234349D02*
D03*
X239349D02*
D03*
X244349D02*
D03*
X249349D02*
D03*
X254349D02*
D03*
X259349D02*
D03*
X264349D02*
D03*
X269349D02*
D03*
X274349D02*
D03*
X279349D02*
D03*
X284349D02*
D03*
X289349D02*
D03*
X294349D02*
D03*
X299349D02*
D03*
X304349D02*
D03*
X309349D02*
D03*
X314349D02*
D03*
X229349Y871750D02*
D03*
X234349D02*
D03*
X239349D02*
D03*
X244349D02*
D03*
X249349D02*
D03*
X254349D02*
D03*
X259349D02*
D03*
X264349D02*
D03*
X269349D02*
D03*
X274349D02*
D03*
X279349D02*
D03*
X284349D02*
D03*
X289349D02*
D03*
X294349D02*
D03*
X299349D02*
D03*
X304349D02*
D03*
X309349D02*
D03*
X314349D02*
D03*
X229349Y866750D02*
D03*
X234349D02*
D03*
X239349D02*
D03*
X244349D02*
D03*
X249349D02*
D03*
X254349D02*
D03*
X259349D02*
D03*
X264349D02*
D03*
X269349D02*
D03*
X274349D02*
D03*
X279349D02*
D03*
X284349D02*
D03*
X289349D02*
D03*
X294349D02*
D03*
X299349D02*
D03*
X304349D02*
D03*
X309349D02*
D03*
X314349D02*
D03*
X249349Y861750D02*
D03*
X254349D02*
D03*
X259349D02*
D03*
X264349D02*
D03*
X269349D02*
D03*
X274349D02*
D03*
X279349D02*
D03*
X284349D02*
D03*
X289349D02*
D03*
X294349D02*
D03*
X229349Y856750D02*
D03*
X234349D02*
D03*
X239349D02*
D03*
X244349D02*
D03*
X254349D02*
D03*
X259349D02*
D03*
X264349D02*
D03*
X269349D02*
D03*
X274349D02*
D03*
X279349D02*
D03*
X284349D02*
D03*
X289349D02*
D03*
X299349D02*
D03*
X304349D02*
D03*
X309349D02*
D03*
X314349D02*
D03*
X229349Y851750D02*
D03*
X234349D02*
D03*
X239349D02*
D03*
X244349D02*
D03*
X254349D02*
D03*
X259349D02*
D03*
X264349D02*
D03*
X269349D02*
D03*
X274349D02*
D03*
X279349D02*
D03*
X284349D02*
D03*
X289349D02*
D03*
X299349D02*
D03*
X304349D02*
D03*
X309349D02*
D03*
X314349D02*
D03*
X229349Y846750D02*
D03*
X234349D02*
D03*
X239349D02*
D03*
X244349D02*
D03*
X254349D02*
D03*
X259349D02*
D03*
X264349D02*
D03*
X269349D02*
D03*
X274349D02*
D03*
X279349D02*
D03*
X284349D02*
D03*
X289349D02*
D03*
X299349D02*
D03*
X304349D02*
D03*
X309349D02*
D03*
X314349D02*
D03*
X234349Y841750D02*
D03*
X239349D02*
D03*
X244349D02*
D03*
X254349D02*
D03*
X259349D02*
D03*
X264349D02*
D03*
X269349D02*
D03*
X274349D02*
D03*
X279349D02*
D03*
X284349D02*
D03*
X289349D02*
D03*
X299349D02*
D03*
X304349D02*
D03*
X309349D02*
D03*
X234349Y1290450D02*
D03*
X239349D02*
D03*
X244349D02*
D03*
X249349D02*
D03*
X254349D02*
D03*
X259349D02*
D03*
X264349D02*
D03*
X269349D02*
D03*
X274349D02*
D03*
X279349D02*
D03*
X284349D02*
D03*
X289349D02*
D03*
X294349D02*
D03*
X299349D02*
D03*
X304349D02*
D03*
X309349D02*
D03*
X229349Y1285450D02*
D03*
X234349D02*
D03*
X239349D02*
D03*
X244349D02*
D03*
X249349D02*
D03*
X254349D02*
D03*
X259349D02*
D03*
X264349D02*
D03*
X269349D02*
D03*
X274349D02*
D03*
X279349D02*
D03*
X284349D02*
D03*
X289349D02*
D03*
X294349D02*
D03*
X299349D02*
D03*
X304349D02*
D03*
X309349D02*
D03*
X314349D02*
D03*
X229349Y1280450D02*
D03*
X234349D02*
D03*
X239349D02*
D03*
X244349D02*
D03*
X249349D02*
D03*
X254349D02*
D03*
X259349D02*
D03*
X264349D02*
D03*
X269349D02*
D03*
X274349D02*
D03*
X279349D02*
D03*
X284349D02*
D03*
X289349D02*
D03*
X294349D02*
D03*
X299349D02*
D03*
X304349D02*
D03*
X309349D02*
D03*
X314349D02*
D03*
X229349Y1275450D02*
D03*
X234349D02*
D03*
X239349D02*
D03*
X269349D02*
D03*
X304349D02*
D03*
X309349D02*
D03*
X314349D02*
D03*
X249349Y1270450D02*
D03*
X254349D02*
D03*
X259349D02*
D03*
X264349D02*
D03*
X269349D02*
D03*
X274349D02*
D03*
X279349D02*
D03*
X284349D02*
D03*
X289349D02*
D03*
X294349D02*
D03*
X229349Y1265450D02*
D03*
X234349D02*
D03*
X239349D02*
D03*
X244349D02*
D03*
X249349D02*
D03*
X254349D02*
D03*
X259349D02*
D03*
X264349D02*
D03*
X269349D02*
D03*
X274349D02*
D03*
X279349D02*
D03*
X284349D02*
D03*
X289349D02*
D03*
X294349D02*
D03*
X299349D02*
D03*
X304349D02*
D03*
X309349D02*
D03*
X314349D02*
D03*
X229349Y1260450D02*
D03*
X234349D02*
D03*
X239349D02*
D03*
X244349D02*
D03*
X249349D02*
D03*
X254349D02*
D03*
X259349D02*
D03*
X264349D02*
D03*
X269349D02*
D03*
X274349D02*
D03*
X279349D02*
D03*
X284349D02*
D03*
X289349D02*
D03*
X294349D02*
D03*
X299349D02*
D03*
X304349D02*
D03*
X309349D02*
D03*
X314349D02*
D03*
X229349Y1255450D02*
D03*
X234349D02*
D03*
X239349D02*
D03*
X244349D02*
D03*
X249349D02*
D03*
X254349D02*
D03*
X259349D02*
D03*
X264349D02*
D03*
X269349D02*
D03*
X274349D02*
D03*
X279349D02*
D03*
X284349D02*
D03*
X289349D02*
D03*
X294349D02*
D03*
X299349D02*
D03*
X304349D02*
D03*
X309349D02*
D03*
X314349D02*
D03*
X229349Y1250450D02*
D03*
X234349D02*
D03*
X239349D02*
D03*
X244349D02*
D03*
X249349D02*
D03*
X254349D02*
D03*
X259349D02*
D03*
X264349D02*
D03*
X269349D02*
D03*
X274349D02*
D03*
X279349D02*
D03*
X284349D02*
D03*
X289349D02*
D03*
X294349D02*
D03*
X299349D02*
D03*
X304349D02*
D03*
X309349D02*
D03*
X314349D02*
D03*
X229349Y1245450D02*
D03*
X234349D02*
D03*
X239349D02*
D03*
X244349D02*
D03*
X249349D02*
D03*
X254349D02*
D03*
X259349D02*
D03*
X264349D02*
D03*
X269349D02*
D03*
X274349D02*
D03*
X279349D02*
D03*
X284349D02*
D03*
X289349D02*
D03*
X294349D02*
D03*
X299349D02*
D03*
X304349D02*
D03*
X309349D02*
D03*
X314349D02*
D03*
X229349Y1240450D02*
D03*
X234349D02*
D03*
X239349D02*
D03*
X244349D02*
D03*
X249349D02*
D03*
X254349D02*
D03*
X259349D02*
D03*
X264349D02*
D03*
X269349D02*
D03*
X274349D02*
D03*
X279349D02*
D03*
X284349D02*
D03*
X289349D02*
D03*
X294349D02*
D03*
X299349D02*
D03*
X304349D02*
D03*
X309349D02*
D03*
X314349D02*
D03*
X229349Y1235450D02*
D03*
X234349D02*
D03*
X239349D02*
D03*
X244349D02*
D03*
X249349D02*
D03*
X254349D02*
D03*
X259349D02*
D03*
X264349D02*
D03*
X269349D02*
D03*
X274349D02*
D03*
X279349D02*
D03*
X284349D02*
D03*
X289349D02*
D03*
X294349D02*
D03*
X299349D02*
D03*
X304349D02*
D03*
X309349D02*
D03*
X314349D02*
D03*
X229349Y1230450D02*
D03*
X234349D02*
D03*
X239349D02*
D03*
X244349D02*
D03*
X249349D02*
D03*
X254349D02*
D03*
X259349D02*
D03*
X264349D02*
D03*
X269349D02*
D03*
X274349D02*
D03*
X279349D02*
D03*
X284349D02*
D03*
X289349D02*
D03*
X294349D02*
D03*
X299349D02*
D03*
X304349D02*
D03*
X309349D02*
D03*
X314349D02*
D03*
X249349Y1225450D02*
D03*
X254349D02*
D03*
X259349D02*
D03*
X264349D02*
D03*
X269349D02*
D03*
X274349D02*
D03*
X279349D02*
D03*
X284349D02*
D03*
X289349D02*
D03*
X294349D02*
D03*
X229349Y1220450D02*
D03*
X234349D02*
D03*
X239349D02*
D03*
X244349D02*
D03*
X254349D02*
D03*
X259349D02*
D03*
X264349D02*
D03*
X269349D02*
D03*
X274349D02*
D03*
X279349D02*
D03*
X284349D02*
D03*
X289349D02*
D03*
X299349D02*
D03*
X304349D02*
D03*
X309349D02*
D03*
X314349D02*
D03*
X229349Y1215450D02*
D03*
X234349D02*
D03*
X239349D02*
D03*
X244349D02*
D03*
X254349D02*
D03*
X259349D02*
D03*
X264349D02*
D03*
X269349D02*
D03*
X274349D02*
D03*
X279349D02*
D03*
X284349D02*
D03*
X289349D02*
D03*
X299349D02*
D03*
X304349D02*
D03*
X309349D02*
D03*
X314349D02*
D03*
X229349Y1210450D02*
D03*
X234349D02*
D03*
X239349D02*
D03*
X244349D02*
D03*
X254349D02*
D03*
X259349D02*
D03*
X264349D02*
D03*
X269349D02*
D03*
X274349D02*
D03*
X279349D02*
D03*
X284349D02*
D03*
X289349D02*
D03*
X299349D02*
D03*
X304349D02*
D03*
X309349D02*
D03*
X314349D02*
D03*
X234349Y1205450D02*
D03*
X239349D02*
D03*
X244349D02*
D03*
X254349D02*
D03*
X259349D02*
D03*
X264349D02*
D03*
X269349D02*
D03*
X274349D02*
D03*
X279349D02*
D03*
X284349D02*
D03*
X289349D02*
D03*
X299349D02*
D03*
X304349D02*
D03*
X309349D02*
D03*
D141*
X97500Y264250D02*
D03*
X74500Y254750D02*
D03*
Y273750D02*
D03*
X97500Y627950D02*
D03*
X74500Y618450D02*
D03*
Y637450D02*
D03*
X97500Y991650D02*
D03*
X74500Y982150D02*
D03*
Y1001150D02*
D03*
X97500Y1355350D02*
D03*
X74500Y1345850D02*
D03*
Y1364850D02*
D03*
D142*
X115700Y223850D02*
D03*
X110100D02*
D03*
X121300Y237500D02*
D03*
X115700D02*
D03*
X97300Y150000D02*
D03*
X91700D02*
D03*
X97300Y143700D02*
D03*
X91700D02*
D03*
X228350Y229250D02*
D03*
X222750D02*
D03*
X115700Y587550D02*
D03*
X110100D02*
D03*
X121300Y601200D02*
D03*
X115700D02*
D03*
X97300Y513700D02*
D03*
X91700D02*
D03*
X97300Y507400D02*
D03*
X91700D02*
D03*
X228350Y592950D02*
D03*
X222750D02*
D03*
X115700Y951250D02*
D03*
X110100D02*
D03*
X121300Y964900D02*
D03*
X115700D02*
D03*
X97300Y877400D02*
D03*
X91700D02*
D03*
X97300Y871100D02*
D03*
X91700D02*
D03*
X228350Y956650D02*
D03*
X222750D02*
D03*
X115700Y1314950D02*
D03*
X110100D02*
D03*
X121300Y1328600D02*
D03*
X115700D02*
D03*
X97300Y1241100D02*
D03*
X91700D02*
D03*
X97300Y1234800D02*
D03*
X91700D02*
D03*
X228350Y1320350D02*
D03*
X222750D02*
D03*
D143*
X186250Y201850D02*
D03*
X182250D02*
D03*
X178250D02*
D03*
X174250D02*
D03*
X170250D02*
D03*
X166250D02*
D03*
X162250D02*
D03*
X158250D02*
D03*
X154250D02*
D03*
X150250D02*
D03*
X146250D02*
D03*
X142250D02*
D03*
X138250D02*
D03*
X134250D02*
D03*
X130250D02*
D03*
X126250D02*
D03*
X122250D02*
D03*
X118250D02*
D03*
X114250D02*
D03*
Y111850D02*
D03*
X118250D02*
D03*
X122250D02*
D03*
X126250D02*
D03*
X130250D02*
D03*
X134250D02*
D03*
X138250D02*
D03*
X142250D02*
D03*
X146250D02*
D03*
X150250Y111850D02*
D03*
X154250Y111850D02*
D03*
X158250D02*
D03*
X162250D02*
D03*
X166250D02*
D03*
X170250D02*
D03*
X174250D02*
D03*
X178250D02*
D03*
X182250D02*
D03*
X186250Y111850D02*
D03*
Y565550D02*
D03*
X182250D02*
D03*
X178250D02*
D03*
X174250D02*
D03*
X170250D02*
D03*
X166250D02*
D03*
X162250D02*
D03*
X158250D02*
D03*
X154250D02*
D03*
X150250D02*
D03*
X146250D02*
D03*
X142250D02*
D03*
X138250D02*
D03*
X134250D02*
D03*
X130250D02*
D03*
X126250D02*
D03*
X122250D02*
D03*
X118250D02*
D03*
X114250D02*
D03*
Y475550D02*
D03*
X118250D02*
D03*
X122250D02*
D03*
X126250D02*
D03*
X130250D02*
D03*
X134250D02*
D03*
X138250D02*
D03*
X142250D02*
D03*
X146250D02*
D03*
X150250Y475550D02*
D03*
X154250Y475550D02*
D03*
X158250D02*
D03*
X162250D02*
D03*
X166250D02*
D03*
X170250D02*
D03*
X174250D02*
D03*
X178250D02*
D03*
X182250D02*
D03*
X186250Y475550D02*
D03*
Y929250D02*
D03*
X182250D02*
D03*
X178250D02*
D03*
X174250D02*
D03*
X170250D02*
D03*
X166250D02*
D03*
X162250D02*
D03*
X158250D02*
D03*
X154250D02*
D03*
X150250D02*
D03*
X146250D02*
D03*
X142250D02*
D03*
X138250D02*
D03*
X134250D02*
D03*
X130250D02*
D03*
X126250D02*
D03*
X122250D02*
D03*
X118250D02*
D03*
X114250D02*
D03*
Y839250D02*
D03*
X118250D02*
D03*
X122250D02*
D03*
X126250D02*
D03*
X130250D02*
D03*
X134250D02*
D03*
X138250D02*
D03*
X142250D02*
D03*
X146250D02*
D03*
X150250Y839250D02*
D03*
X154250Y839250D02*
D03*
X158250D02*
D03*
X162250D02*
D03*
X166250D02*
D03*
X170250D02*
D03*
X174250D02*
D03*
X178250D02*
D03*
X182250D02*
D03*
X186250Y839250D02*
D03*
Y1292950D02*
D03*
X182250D02*
D03*
X178250D02*
D03*
X174250D02*
D03*
X170250D02*
D03*
X166250D02*
D03*
X162250D02*
D03*
X158250D02*
D03*
X154250D02*
D03*
X150250D02*
D03*
X146250D02*
D03*
X142250D02*
D03*
X138250D02*
D03*
X134250D02*
D03*
X130250D02*
D03*
X126250D02*
D03*
X122250D02*
D03*
X118250D02*
D03*
X114250D02*
D03*
Y1202950D02*
D03*
X118250D02*
D03*
X122250D02*
D03*
X126250D02*
D03*
X130250D02*
D03*
X134250D02*
D03*
X138250D02*
D03*
X142250D02*
D03*
X146250D02*
D03*
X150250Y1202950D02*
D03*
X154250Y1202950D02*
D03*
X158250D02*
D03*
X162250D02*
D03*
X166250D02*
D03*
X170250D02*
D03*
X174250D02*
D03*
X178250D02*
D03*
X182250D02*
D03*
X186250Y1202950D02*
D03*
D144*
X105250Y192850D02*
D03*
X105250Y188850D02*
D03*
Y184850D02*
D03*
Y180850D02*
D03*
Y176850D02*
D03*
Y172850D02*
D03*
Y168850D02*
D03*
Y164850D02*
D03*
Y160850D02*
D03*
X105250Y156850D02*
D03*
X105250Y152850D02*
D03*
Y148850D02*
D03*
Y144850D02*
D03*
Y140850D02*
D03*
Y136850D02*
D03*
Y132850D02*
D03*
Y128850D02*
D03*
Y124850D02*
D03*
Y120850D02*
D03*
X195250D02*
D03*
Y124850D02*
D03*
Y128850D02*
D03*
Y132850D02*
D03*
Y136850D02*
D03*
Y140850D02*
D03*
Y144850D02*
D03*
Y148850D02*
D03*
Y152850D02*
D03*
Y156850D02*
D03*
Y160850D02*
D03*
Y164850D02*
D03*
Y168850D02*
D03*
Y172850D02*
D03*
Y176850D02*
D03*
Y180850D02*
D03*
Y184850D02*
D03*
Y188850D02*
D03*
Y192850D02*
D03*
X105250Y556550D02*
D03*
X105250Y552550D02*
D03*
Y548550D02*
D03*
Y544550D02*
D03*
Y540550D02*
D03*
Y536550D02*
D03*
Y532550D02*
D03*
Y528550D02*
D03*
Y524550D02*
D03*
X105250Y520550D02*
D03*
X105250Y516550D02*
D03*
Y512550D02*
D03*
Y508550D02*
D03*
Y504550D02*
D03*
Y500550D02*
D03*
Y496550D02*
D03*
Y492550D02*
D03*
Y488550D02*
D03*
Y484550D02*
D03*
X195250D02*
D03*
Y488550D02*
D03*
Y492550D02*
D03*
Y496550D02*
D03*
Y500550D02*
D03*
Y504550D02*
D03*
Y508550D02*
D03*
Y512550D02*
D03*
Y516550D02*
D03*
Y520550D02*
D03*
Y524550D02*
D03*
Y528550D02*
D03*
Y532550D02*
D03*
Y536550D02*
D03*
Y540550D02*
D03*
Y544550D02*
D03*
Y548550D02*
D03*
Y552550D02*
D03*
Y556550D02*
D03*
X105250Y920250D02*
D03*
X105250Y916250D02*
D03*
Y912250D02*
D03*
Y908250D02*
D03*
Y904250D02*
D03*
Y900250D02*
D03*
Y896250D02*
D03*
Y892250D02*
D03*
Y888250D02*
D03*
X105250Y884250D02*
D03*
X105250Y880250D02*
D03*
Y876250D02*
D03*
Y872250D02*
D03*
Y868250D02*
D03*
Y864250D02*
D03*
Y860250D02*
D03*
Y856250D02*
D03*
Y852250D02*
D03*
Y848250D02*
D03*
X195250D02*
D03*
Y852250D02*
D03*
Y856250D02*
D03*
Y860250D02*
D03*
Y864250D02*
D03*
Y868250D02*
D03*
Y872250D02*
D03*
Y876250D02*
D03*
Y880250D02*
D03*
Y884250D02*
D03*
Y888250D02*
D03*
Y892250D02*
D03*
Y896250D02*
D03*
Y900250D02*
D03*
Y904250D02*
D03*
Y908250D02*
D03*
Y912250D02*
D03*
Y916250D02*
D03*
Y920250D02*
D03*
X105250Y1283950D02*
D03*
X105250Y1279950D02*
D03*
Y1275950D02*
D03*
Y1271950D02*
D03*
Y1267950D02*
D03*
Y1263950D02*
D03*
Y1259950D02*
D03*
Y1255950D02*
D03*
Y1251950D02*
D03*
X105250Y1247950D02*
D03*
X105250Y1243950D02*
D03*
Y1239950D02*
D03*
Y1235950D02*
D03*
Y1231950D02*
D03*
Y1227950D02*
D03*
Y1223950D02*
D03*
Y1219950D02*
D03*
Y1215950D02*
D03*
Y1211950D02*
D03*
X195250D02*
D03*
Y1215950D02*
D03*
Y1219950D02*
D03*
Y1223950D02*
D03*
Y1227950D02*
D03*
Y1231950D02*
D03*
Y1235950D02*
D03*
Y1239950D02*
D03*
Y1243950D02*
D03*
Y1247950D02*
D03*
Y1251950D02*
D03*
Y1255950D02*
D03*
Y1259950D02*
D03*
Y1263950D02*
D03*
Y1267950D02*
D03*
Y1271950D02*
D03*
Y1275950D02*
D03*
Y1279950D02*
D03*
Y1283950D02*
D03*
D145*
X150250Y156850D02*
D03*
Y520550D02*
D03*
Y884250D02*
D03*
Y1247950D02*
D03*
D146*
X135250Y253500D02*
D03*
Y260000D02*
D03*
Y266500D02*
D03*
X110250Y266500D02*
D03*
Y260000D02*
D03*
Y253500D02*
D03*
Y273000D02*
D03*
X135250Y273000D02*
D03*
Y617200D02*
D03*
Y623700D02*
D03*
Y630200D02*
D03*
X110250Y630200D02*
D03*
Y623700D02*
D03*
Y617200D02*
D03*
Y636700D02*
D03*
X135250Y636700D02*
D03*
Y980900D02*
D03*
Y987400D02*
D03*
Y993900D02*
D03*
X110250Y993900D02*
D03*
Y987400D02*
D03*
Y980900D02*
D03*
Y1000400D02*
D03*
X135250Y1000400D02*
D03*
Y1344600D02*
D03*
Y1351100D02*
D03*
Y1357600D02*
D03*
X110250Y1357600D02*
D03*
Y1351100D02*
D03*
Y1344600D02*
D03*
Y1364100D02*
D03*
X135250Y1364100D02*
D03*
D147*
X48500Y116850D02*
D03*
Y136850D02*
D03*
X48500Y156850D02*
D03*
X48500Y176850D02*
D03*
X48500Y196850D02*
D03*
Y186850D02*
D03*
Y166850D02*
D03*
Y146850D02*
D03*
Y126850D02*
D03*
Y480550D02*
D03*
Y500550D02*
D03*
X48500Y520550D02*
D03*
X48500Y540550D02*
D03*
X48500Y560550D02*
D03*
Y550550D02*
D03*
Y530550D02*
D03*
Y510550D02*
D03*
Y490550D02*
D03*
Y844250D02*
D03*
Y864250D02*
D03*
X48500Y884250D02*
D03*
X48500Y904250D02*
D03*
X48500Y924250D02*
D03*
Y914250D02*
D03*
Y894250D02*
D03*
Y874250D02*
D03*
Y854250D02*
D03*
Y1207950D02*
D03*
Y1227950D02*
D03*
X48500Y1247950D02*
D03*
X48500Y1267950D02*
D03*
X48500Y1287950D02*
D03*
Y1277950D02*
D03*
Y1257950D02*
D03*
Y1237950D02*
D03*
Y1217950D02*
D03*
D148*
X662000Y19500D02*
D03*
X648000D02*
D03*
X648000Y26500D02*
D03*
X662000D02*
D03*
X662000Y287500D02*
D03*
X648000D02*
D03*
X648000Y294500D02*
D03*
X662000D02*
D03*
X616903Y153100D02*
D03*
X630902D02*
D03*
X630902Y160100D02*
D03*
X616903D02*
D03*
X662000Y383200D02*
D03*
X648000D02*
D03*
X648000Y390200D02*
D03*
X662000D02*
D03*
X662000Y651200D02*
D03*
X648000D02*
D03*
X648000Y658200D02*
D03*
X662000D02*
D03*
X616903Y516800D02*
D03*
X630902D02*
D03*
X630902Y523800D02*
D03*
X616903D02*
D03*
X662000Y746900D02*
D03*
X648000D02*
D03*
X648000Y753900D02*
D03*
X662000D02*
D03*
X662000Y1014900D02*
D03*
X648000D02*
D03*
X648000Y1021900D02*
D03*
X662000D02*
D03*
X616903Y880500D02*
D03*
X630902D02*
D03*
X630902Y887500D02*
D03*
X616903D02*
D03*
X662000Y1110600D02*
D03*
X648000D02*
D03*
X648000Y1117600D02*
D03*
X662000D02*
D03*
X662000Y1378600D02*
D03*
X648000D02*
D03*
X648000Y1385600D02*
D03*
X662000D02*
D03*
X616903Y1244200D02*
D03*
X630902D02*
D03*
X630902Y1251200D02*
D03*
X616903D02*
D03*
D149*
X77925Y160850D02*
D03*
Y524550D02*
D03*
Y888250D02*
D03*
Y1251950D02*
D03*
D150*
X77425Y156850D02*
D03*
Y152850D02*
D03*
Y148850D02*
D03*
Y144850D02*
D03*
Y140850D02*
D03*
Y136850D02*
D03*
Y132850D02*
D03*
Y520550D02*
D03*
Y516550D02*
D03*
Y512550D02*
D03*
Y508550D02*
D03*
Y504550D02*
D03*
Y500550D02*
D03*
Y496550D02*
D03*
Y884250D02*
D03*
Y880250D02*
D03*
Y876250D02*
D03*
Y872250D02*
D03*
Y868250D02*
D03*
Y864250D02*
D03*
Y860250D02*
D03*
Y1247950D02*
D03*
Y1243950D02*
D03*
Y1239950D02*
D03*
Y1235950D02*
D03*
Y1231950D02*
D03*
Y1227950D02*
D03*
Y1223950D02*
D03*
D151*
X84175Y152650D02*
D03*
Y141050D02*
D03*
Y516350D02*
D03*
Y504750D02*
D03*
Y880050D02*
D03*
Y868450D02*
D03*
Y1243750D02*
D03*
Y1232150D02*
D03*
D152*
X454250Y69625D02*
D03*
X474250D02*
D03*
X474380Y40409D02*
D03*
X454380D02*
D03*
X454250Y433325D02*
D03*
X474250D02*
D03*
X474380Y404109D02*
D03*
X454380D02*
D03*
X454250Y797025D02*
D03*
X474250D02*
D03*
X474380Y767809D02*
D03*
X454380D02*
D03*
X454250Y1160725D02*
D03*
X474250D02*
D03*
X474380Y1131509D02*
D03*
X454380D02*
D03*
D153*
X639500Y229250D02*
D03*
Y247250D02*
D03*
Y84250D02*
D03*
Y66250D02*
D03*
Y592950D02*
D03*
Y610950D02*
D03*
Y447950D02*
D03*
Y429950D02*
D03*
Y956650D02*
D03*
Y974650D02*
D03*
Y811650D02*
D03*
Y793650D02*
D03*
Y1320350D02*
D03*
Y1338350D02*
D03*
Y1175350D02*
D03*
Y1157350D02*
D03*
D154*
X573400Y68700D02*
D03*
Y41800D02*
D03*
X541600D02*
D03*
Y68700D02*
D03*
X482350Y276450D02*
D03*
Y249550D02*
D03*
X514150D02*
D03*
Y276450D02*
D03*
X578900Y243950D02*
D03*
Y217050D02*
D03*
X547100D02*
D03*
Y243950D02*
D03*
X573400Y432400D02*
D03*
Y405500D02*
D03*
X541600D02*
D03*
Y432400D02*
D03*
X482350Y640150D02*
D03*
Y613250D02*
D03*
X514150D02*
D03*
Y640150D02*
D03*
X578900Y607650D02*
D03*
Y580750D02*
D03*
X547100D02*
D03*
Y607650D02*
D03*
X573400Y796100D02*
D03*
Y769200D02*
D03*
X541600D02*
D03*
Y796100D02*
D03*
X482350Y1003850D02*
D03*
Y976950D02*
D03*
X514150D02*
D03*
Y1003850D02*
D03*
X578900Y971350D02*
D03*
Y944450D02*
D03*
X547100D02*
D03*
Y971350D02*
D03*
X573400Y1159800D02*
D03*
Y1132900D02*
D03*
X541600D02*
D03*
Y1159800D02*
D03*
X482350Y1367550D02*
D03*
Y1340650D02*
D03*
X514150D02*
D03*
Y1367550D02*
D03*
X578900Y1335050D02*
D03*
Y1308150D02*
D03*
X547100D02*
D03*
Y1335050D02*
D03*
D155*
X573400Y55250D02*
D03*
X514150Y263000D02*
D03*
X578900Y230500D02*
D03*
X573400Y418950D02*
D03*
X514150Y626700D02*
D03*
X578900Y594200D02*
D03*
X573400Y782650D02*
D03*
X514150Y990400D02*
D03*
X578900Y957900D02*
D03*
X573400Y1146350D02*
D03*
X514150Y1354100D02*
D03*
X578900Y1321600D02*
D03*
D156*
X541550Y155200D02*
D03*
X568450D02*
D03*
Y187000D02*
D03*
X541550D02*
D03*
Y518900D02*
D03*
X568450D02*
D03*
Y550700D02*
D03*
X541550D02*
D03*
Y882600D02*
D03*
X568450D02*
D03*
Y914400D02*
D03*
X541550D02*
D03*
Y1246300D02*
D03*
X568450D02*
D03*
Y1278100D02*
D03*
X541550D02*
D03*
D157*
X555000Y187000D02*
D03*
Y550700D02*
D03*
Y914400D02*
D03*
Y1278100D02*
D03*
D158*
X621750Y84250D02*
D03*
X626250D02*
D03*
X621750Y447950D02*
D03*
X626250D02*
D03*
X621750Y811650D02*
D03*
X626250D02*
D03*
X621750Y1175350D02*
D03*
X626250D02*
D03*
D159*
X626500Y224250D02*
D03*
Y228750D02*
D03*
Y587950D02*
D03*
Y592450D02*
D03*
Y951650D02*
D03*
Y956150D02*
D03*
Y1315350D02*
D03*
Y1319850D02*
D03*
D160*
X669450Y257075D02*
D03*
Y201675D02*
D03*
X668450Y229375D02*
D03*
Y84375D02*
D03*
X669450Y56675D02*
D03*
Y112075D02*
D03*
Y620775D02*
D03*
Y565375D02*
D03*
X668450Y593075D02*
D03*
Y448075D02*
D03*
X669450Y420375D02*
D03*
Y475775D02*
D03*
Y984475D02*
D03*
Y929075D02*
D03*
X668450Y956775D02*
D03*
Y811775D02*
D03*
X669450Y784075D02*
D03*
Y839475D02*
D03*
Y1348175D02*
D03*
Y1292775D02*
D03*
X668450Y1320475D02*
D03*
Y1175475D02*
D03*
X669450Y1147775D02*
D03*
Y1203175D02*
D03*
D161*
X373000Y220750D02*
D03*
Y584450D02*
D03*
Y948150D02*
D03*
Y1311850D02*
D03*
D162*
X306000Y222350D02*
D03*
X267000Y222350D02*
D03*
X306000Y235100D02*
D03*
X267000Y235100D02*
D03*
X306000Y247850D02*
D03*
X267000Y247850D02*
D03*
X306000Y260600D02*
D03*
X267000D02*
D03*
X306000Y273350D02*
D03*
X267000Y273350D02*
D03*
X306000Y586050D02*
D03*
X267000Y586050D02*
D03*
X306000Y598800D02*
D03*
X267000Y598800D02*
D03*
X306000Y611550D02*
D03*
X267000Y611550D02*
D03*
X306000Y624300D02*
D03*
X267000D02*
D03*
X306000Y637050D02*
D03*
X267000Y637050D02*
D03*
X306000Y949750D02*
D03*
X267000Y949750D02*
D03*
X306000Y962500D02*
D03*
X267000Y962500D02*
D03*
X306000Y975250D02*
D03*
X267000Y975250D02*
D03*
X306000Y988000D02*
D03*
X267000D02*
D03*
X306000Y1000750D02*
D03*
X267000Y1000750D02*
D03*
X306000Y1313450D02*
D03*
X267000Y1313450D02*
D03*
X306000Y1326200D02*
D03*
X267000Y1326200D02*
D03*
X306000Y1338950D02*
D03*
X267000Y1338950D02*
D03*
X306000Y1351700D02*
D03*
X267000D02*
D03*
X306000Y1364450D02*
D03*
X267000Y1364450D02*
D03*
D163*
X213250Y264800D02*
D03*
Y270400D02*
D03*
Y628500D02*
D03*
Y634100D02*
D03*
Y992200D02*
D03*
Y997800D02*
D03*
Y1355900D02*
D03*
Y1361500D02*
D03*
D164*
X594750Y99250D02*
D03*
X598500Y253750D02*
D03*
X594750Y462950D02*
D03*
X598500Y617450D02*
D03*
X594750Y826650D02*
D03*
X598500Y981150D02*
D03*
X594750Y1190350D02*
D03*
X598500Y1344850D02*
D03*
D165*
X589750Y106500D02*
D03*
X594750D02*
D03*
X599750D02*
D03*
Y92000D02*
D03*
X594750D02*
D03*
X589750D02*
D03*
X593500Y261000D02*
D03*
X598500D02*
D03*
X603500D02*
D03*
Y246500D02*
D03*
X598500D02*
D03*
X593500D02*
D03*
X589750Y470200D02*
D03*
X594750D02*
D03*
X599750D02*
D03*
Y455700D02*
D03*
X594750D02*
D03*
X589750D02*
D03*
X593500Y624700D02*
D03*
X598500D02*
D03*
X603500D02*
D03*
Y610200D02*
D03*
X598500D02*
D03*
X593500D02*
D03*
X589750Y833900D02*
D03*
X594750D02*
D03*
X599750D02*
D03*
Y819400D02*
D03*
X594750D02*
D03*
X589750D02*
D03*
X593500Y988400D02*
D03*
X598500D02*
D03*
X603500D02*
D03*
Y973900D02*
D03*
X598500D02*
D03*
X593500D02*
D03*
X589750Y1197600D02*
D03*
X594750D02*
D03*
X599750D02*
D03*
Y1183100D02*
D03*
X594750D02*
D03*
X589750D02*
D03*
X593500Y1352100D02*
D03*
X598500D02*
D03*
X603500D02*
D03*
Y1337600D02*
D03*
X598500D02*
D03*
X593500D02*
D03*
D166*
X126250Y67250D02*
D03*
Y430950D02*
D03*
Y794650D02*
D03*
Y1158350D02*
D03*
D167*
X135750Y53250D02*
D03*
X126250D02*
D03*
X116750D02*
D03*
Y81250D02*
D03*
X126250D02*
D03*
X135750D02*
D03*
Y416950D02*
D03*
X126250D02*
D03*
X116750D02*
D03*
Y444950D02*
D03*
X126250D02*
D03*
X135750D02*
D03*
Y780650D02*
D03*
X126250D02*
D03*
X116750D02*
D03*
Y808650D02*
D03*
X126250D02*
D03*
X135750D02*
D03*
Y1144350D02*
D03*
X126250D02*
D03*
X116750D02*
D03*
Y1172350D02*
D03*
X126250D02*
D03*
X135750D02*
D03*
D168*
X664865Y156850D02*
D03*
Y520550D02*
D03*
Y884250D02*
D03*
Y1247950D02*
D03*
D169*
X24500Y214850D02*
D03*
Y98850D02*
D03*
Y578550D02*
D03*
Y462550D02*
D03*
Y942250D02*
D03*
Y826250D02*
D03*
Y1305950D02*
D03*
Y1189950D02*
D03*
D170*
X465536Y7950D02*
D03*
X80964Y305750D02*
D03*
X81393Y7950D02*
D03*
X465536Y371650D02*
D03*
X80964Y669450D02*
D03*
X81393Y371650D02*
D03*
X465536Y735350D02*
D03*
X80964Y1033150D02*
D03*
X81393Y735350D02*
D03*
X465536Y1099050D02*
D03*
X80964Y1396850D02*
D03*
X81393Y1099050D02*
D03*
D171*
X490964Y7950D02*
D03*
X233536Y305750D02*
D03*
X208107D02*
D03*
X106393D02*
D03*
X131821D02*
D03*
X157250D02*
D03*
X182679D02*
D03*
X106821Y7950D02*
D03*
X132250D02*
D03*
X157679D02*
D03*
X183107D02*
D03*
X490964Y371650D02*
D03*
X233536Y669450D02*
D03*
X208107D02*
D03*
X106393D02*
D03*
X131821D02*
D03*
X157250D02*
D03*
X182679D02*
D03*
X106821Y371650D02*
D03*
X132250D02*
D03*
X157679D02*
D03*
X183107D02*
D03*
X490964Y735350D02*
D03*
X233536Y1033150D02*
D03*
X208107D02*
D03*
X106393D02*
D03*
X131821D02*
D03*
X157250D02*
D03*
X182679D02*
D03*
X106821Y735350D02*
D03*
X132250D02*
D03*
X157679D02*
D03*
X183107D02*
D03*
X490964Y1099050D02*
D03*
X233536Y1396850D02*
D03*
X208107D02*
D03*
X106393D02*
D03*
X131821D02*
D03*
X157250D02*
D03*
X182679D02*
D03*
X106821Y1099050D02*
D03*
X132250D02*
D03*
X157679D02*
D03*
X183107D02*
D03*
D172*
X25000Y276800D02*
D03*
Y36800D02*
D03*
Y640500D02*
D03*
Y400500D02*
D03*
Y1004200D02*
D03*
Y764200D02*
D03*
Y1367900D02*
D03*
Y1127900D02*
D03*
D173*
X172250Y178850D02*
D03*
Y167850D02*
D03*
Y156850D02*
D03*
Y145850D02*
D03*
Y134850D02*
D03*
X161250Y178850D02*
D03*
Y167850D02*
D03*
Y156850D02*
D03*
Y145850D02*
D03*
Y134850D02*
D03*
X150250Y178850D02*
D03*
Y167850D02*
D03*
Y156850D02*
D03*
Y145850D02*
D03*
Y134850D02*
D03*
X139250Y178850D02*
D03*
Y167850D02*
D03*
X139250Y156850D02*
D03*
X139250Y145850D02*
D03*
Y134850D02*
D03*
X128250Y178850D02*
D03*
Y167850D02*
D03*
Y156850D02*
D03*
X128250Y145850D02*
D03*
X128250Y134850D02*
D03*
X172250Y542550D02*
D03*
Y531550D02*
D03*
Y520550D02*
D03*
Y509550D02*
D03*
Y498550D02*
D03*
X161250Y542550D02*
D03*
Y531550D02*
D03*
Y520550D02*
D03*
Y509550D02*
D03*
Y498550D02*
D03*
X150250Y542550D02*
D03*
Y531550D02*
D03*
Y520550D02*
D03*
Y509550D02*
D03*
Y498550D02*
D03*
X139250Y542550D02*
D03*
Y531550D02*
D03*
X139250Y520550D02*
D03*
X139250Y509550D02*
D03*
Y498550D02*
D03*
X128250Y542550D02*
D03*
Y531550D02*
D03*
Y520550D02*
D03*
X128250Y509550D02*
D03*
X128250Y498550D02*
D03*
X172250Y906250D02*
D03*
Y895250D02*
D03*
Y884250D02*
D03*
Y873250D02*
D03*
Y862250D02*
D03*
X161250Y906250D02*
D03*
Y895250D02*
D03*
Y884250D02*
D03*
Y873250D02*
D03*
Y862250D02*
D03*
X150250Y906250D02*
D03*
Y895250D02*
D03*
Y884250D02*
D03*
Y873250D02*
D03*
Y862250D02*
D03*
X139250Y906250D02*
D03*
Y895250D02*
D03*
X139250Y884250D02*
D03*
X139250Y873250D02*
D03*
Y862250D02*
D03*
X128250Y906250D02*
D03*
Y895250D02*
D03*
Y884250D02*
D03*
X128250Y873250D02*
D03*
X128250Y862250D02*
D03*
X172250Y1269950D02*
D03*
Y1258950D02*
D03*
Y1247950D02*
D03*
Y1236950D02*
D03*
Y1225950D02*
D03*
X161250Y1269950D02*
D03*
Y1258950D02*
D03*
Y1247950D02*
D03*
Y1236950D02*
D03*
Y1225950D02*
D03*
X150250Y1269950D02*
D03*
Y1258950D02*
D03*
Y1247950D02*
D03*
Y1236950D02*
D03*
Y1225950D02*
D03*
X139250Y1269950D02*
D03*
Y1258950D02*
D03*
X139250Y1247950D02*
D03*
X139250Y1236950D02*
D03*
Y1225950D02*
D03*
X128250Y1269950D02*
D03*
Y1258950D02*
D03*
Y1247950D02*
D03*
X128250Y1236950D02*
D03*
X128250Y1225950D02*
D03*
M02*
